<?xml version="1.0" standalone="no"?>
<!DOCTYPE svg PUBLIC "-//W3C//DTD SVG 1.1//EN" "http://www.w3.org/Graphics/SVG/1.1/DTD/svg11.dtd" >
<svg xmlns="http://www.w3.org/2000/svg">
<metadata></metadata>
<defs>
<font id="biryaniheavy" horiz-adv-x="1126" >
<font-face units-per-em="2048" ascent="1638" descent="-410" />
<missing-glyph horiz-adv-x="450" />
<glyph unicode="&#xfb01;" horiz-adv-x="1476" d="M61 0zM61 844v315h140v291q0 150 89 229.5t271 79.5q55 0 103.5 -7t117.5 -21v-304q-53 16 -120 17q-60 0 -82.5 -27.5t-22.5 -95.5v-162h225v-315h-225v-844h-356v844h-140zM977 0v1159h357v-1159h-357zM977 1343v310h357v-310h-357z" />
<glyph unicode="&#xfb02;" horiz-adv-x="1609" d="M61 0zM61 844v315h140v291q0 150 89 229.5t271 79.5q55 0 103.5 -7t117.5 -21v-304q-53 16 -120 17q-60 0 -82.5 -27.5t-22.5 -95.5v-162h225v-315h-225v-844h-356v844h-140zM977 283v1450h357v-1321q0 -68 22.5 -95.5t81.5 -27.5q68 0 121 16v-303q-70 -14 -118 -21.5 t-103 -7.5q-182 0 -271.5 80t-89.5 230z" />
<glyph horiz-adv-x="0" />
<glyph unicode="&#xd;" horiz-adv-x="1228" />
<glyph unicode=" "  horiz-adv-x="450" />
<glyph unicode="&#x09;" horiz-adv-x="450" />
<glyph unicode="&#xa0;" horiz-adv-x="450" />
<glyph unicode="!" horiz-adv-x="581" d="M94 1552h393l-45 -1081h-303zM102 0v350h377v-350h-377z" />
<glyph unicode="&#x22;" horiz-adv-x="1032" d="M131 934v618h320v-618h-320zM131 934zM582 934v618h320v-618h-320z" />
<glyph unicode="#" horiz-adv-x="1439" d="M123 272v316h168l26 205h-133v315h174l35 272h320l-35 -272h190l35 272h320l-35 -272h127v-315h-168l-27 -205h133v-316h-174l-35 -272h-319l35 272h-191l-34 -272h-320l35 272h-127zM610 588h191l26 205h-190z" />
<glyph unicode="$" d="M29 969q0 190 106.5 299.5t302.5 132.5v151h299v-159q137 -20 273 -90v-318q-121 70 -273 94v-266l17 -4q180 -51 260 -146.5t80 -252.5q0 -181 -106.5 -293.5t-301.5 -141.5v-172h-299v170q-188 18 -344 97v327q158 -84 344 -110v258q-176 51 -267 148.5t-91 275.5z M377 1001q0 -39 13 -60t48 -38v187q-61 -19 -61 -89zM686 293q35 12 47 33.5t12 50.5q0 27 -12 44t-47 32v-160z" />
<glyph unicode="%" horiz-adv-x="2119" d="M35 1100q0 127 54 230.5t156.5 162.5t243.5 59t244 -59t156 -162.5t53 -230.5t-53 -230.5t-155.5 -164t-244.5 -60.5q-141 0 -243.5 60.5t-156.5 164t-54 230.5zM293 1100q0 -94 52 -157.5t144 -63.5q95 0 145 63.5t50 157.5q0 96 -50 157.5t-145 61.5q-92 0 -144 -62.5 t-52 -156.5zM489 -68l854 1651h283l-854 -1651h-283zM1178 420q0 127 54 230.5t156.5 162.5t243.5 59t243.5 -59t156 -162.5t53.5 -230.5t-53.5 -230.5t-155.5 -164t-244 -60.5q-141 0 -243.5 60.5t-156.5 164t-54 230.5zM1436 420q0 -94 52 -157.5t144 -63.5 q94 0 144.5 63.5t50.5 157.5q0 96 -50.5 157.5t-144.5 61.5q-92 0 -144 -62.5t-52 -156.5z" />
<glyph unicode="&#x26;" horiz-adv-x="1667" d="M55 393q0 145 71 250t196 186q-129 172 -129 355q0 129 59 222t163.5 141t237.5 48q207 0 336 -107.5t129 -299.5q0 -123 -81 -230.5t-212 -191.5q137 -145 232 -227q117 197 119 481h364q0 -182 -57.5 -355t-161.5 -315q72 -35 147 -35h138v-315h-140q-109 0 -205 24.5 t-194 77.5q-209 -137 -440 -137q-281 0 -426.5 107.5t-145.5 320.5zM420 406q0 -130 207 -130q86 0 168 29q-102 96 -265 277q-70 -49 -90 -85t-20 -91zM557 1182q0 -45 16.5 -87t51.5 -94q61 37 95 90.5t34 102.5q0 111 -101 111q-53 0 -74.5 -33t-21.5 -90z" />
<glyph unicode="'" horiz-adv-x="581" d="M131 934v618h320v-618h-320z" />
<glyph unicode="(" horiz-adv-x="790" d="M115 735q0 305 91 543t286 457l258 -179q-250 -338 -250 -821t250 -821l-258 -178q-195 219 -286 456.5t-91 542.5z" />
<glyph unicode=")" horiz-adv-x="790" d="M41 -86q250 338 250 821t-250 821l258 179q195 -219 286 -457t91 -543t-91 -542.5t-286 -456.5z" />
<glyph unicode="*" horiz-adv-x="1265" d="M123 1147l307 131l-307 131l141 246l268 -201l-40 332h282l-41 -332l268 201l142 -246l-307 -131l307 -131l-142 -246l-268 201l41 -332h-282l40 332l-268 -201z" />
<glyph unicode="+" d="M137 532v316h266v266h320v-266h266v-316h-266v-270h-320v270h-266z" />
<glyph unicode="," horiz-adv-x="581" d="M35 -309l123 680h368l-176 -680h-315z" />
<glyph unicode="-" horiz-adv-x="929" d="M164 451v311h602v-311h-602z" />
<glyph unicode="." horiz-adv-x="581" d="M102 0v371h377v-371h-377z" />
<glyph unicode="/" horiz-adv-x="894" d="M-51 -362l637 2269h360l-637 -2269h-360z" />
<glyph unicode="0" d="M55 688q0 377 124 549t384 172q252 0 380 -174t128 -547q0 -381 -127 -552t-381 -171q-262 0 -385 169t-123 554zM420 688q0 -166 15.5 -255t46 -123t81.5 -34q47 0 78 34t48.5 124t17.5 254q0 233 -36 321.5t-108 88.5q-51 0 -81.5 -35t-46 -123t-15.5 -252z" />
<glyph unicode="1" d="M125 0v315h278v750h-237v315h598v-1065h278v-315h-917z" />
<glyph unicode="2" d="M86 0v315q252 213 360.5 310.5t164 172t55.5 140.5q0 80 -51.5 120t-139.5 40q-170 0 -338 -84v319q100 43 200.5 59.5t217.5 16.5q211 0 343 -112.5t132 -321.5q0 -119 -47 -216t-147.5 -196.5t-284.5 -247.5h520v-315h-985z" />
<glyph unicode="3" d="M96 37v319q78 -37 165 -58.5t173 -21.5q119 0 185.5 39t66.5 115q0 66 -49 99.5t-143 33.5h-234v311h234q172 0 172 109q0 55 -53.5 85t-153.5 30q-199 0 -342 -72v320q158 63 399 63q238 0 376 -96t138 -260q0 -137 -61.5 -215t-180.5 -117q125 -31 194 -116t69 -226 q0 -190 -143.5 -302t-391.5 -112t-420 72z" />
<glyph unicode="4" d="M20 266v295l459 838h484v-838h149v-295h-149v-301h-361v301h-582zM393 561h209v393z" />
<glyph unicode="5" d="M106 25v317q76 -33 171.5 -49.5t175.5 -16.5q244 0 243 166q0 70 -53 108t-151 38t-195.5 -16.5t-167.5 -45.5l14 854h838v-315h-485l-4 -168q29 2 81 2q232 0 360 -125t128 -332q0 -231 -146.5 -354t-422.5 -123q-211 0 -386 60z" />
<glyph unicode="6" d="M35 516q0 285 173 504t501 385l239 -219q-193 -119 -292 -191.5t-154 -144.5q72 27 153 27q131 0 229.5 -55.5t150.5 -152t52 -216.5q0 -147 -65.5 -258t-181 -170.5t-262.5 -59.5q-268 0 -405.5 141.5t-137.5 409.5zM399 479q0 -109 43 -166t127 -57q70 0 112 45t42 131 q0 80 -41 127t-115 47q-84 0 -166 -41q-2 -27 -2 -86z" />
<glyph unicode="7" d="M88 1065v315h946v-315l-493 -1100h-404l520 1100h-569z" />
<glyph unicode="8" d="M41 362q0 127 62.5 218.5t187.5 136.5q-100 47 -152.5 130t-52.5 191q0 168 122 269.5t355 101.5q147 0 256 -48t165 -132t56 -191q0 -106 -55 -190t-160 -131q125 -45 192.5 -137.5t67.5 -217.5q0 -182 -138 -289.5t-384 -107.5q-256 0 -389 105.5t-133 291.5zM406 414 q0 -72 45 -115t112 -43q68 0 113 43t45 115t-45 114.5t-113 42.5t-112.5 -43t-44.5 -114zM451 987q0 -59 29.5 -95t82.5 -36t83 36t30 95t-30 95t-83 36t-82.5 -35.5t-29.5 -95.5z" />
<glyph unicode="9" d="M39 918q0 147 65.5 257.5t181 170t263.5 59.5q268 0 405.5 -141.5t137.5 -409.5q0 -285 -173.5 -504t-500.5 -385l-240 219q193 119 292 192t155 144q-72 -27 -154 -26q-131 0 -229.5 55t-150.5 151.5t-52 217.5zM403 938q0 -80 41 -127t115 -47q84 0 166 41q2 27 2 86 q0 109 -43 166t-127 57q-70 0 -112 -45t-42 -131z" />
<glyph unicode=":" horiz-adv-x="581" d="M102 0v371h377v-371h-377zM102 0zM102 809v371h377v-371h-377z" />
<glyph unicode=";" horiz-adv-x="581" d="M35 0zM35 -309l123 680h368l-176 -680h-315zM102 809v371h377v-371h-377z" />
<glyph unicode="&#x3c;" d="M137 537v290l725 428l150 -282l-496 -291l496 -291l-150 -280z" />
<glyph unicode="=" d="M137 328v315h852v-315h-852zM137 737v316h852v-316h-852z" />
<glyph unicode="&#x3e;" d="M114 391l150 -280l725 426v290l-725 428l-150 -282l496 -291zM115 111z" />
<glyph unicode="?" horiz-adv-x="1024" d="M76 1186v319q98 43 193.5 59.5t203.5 16.5q219 0 357.5 -103.5t138.5 -293.5q0 -98 -31 -168t-75 -116t-120 -107l-61 -50q-49 -41 -66.5 -75.5t-17.5 -96.5v-100h-360v135q0 111 34.5 175.5t126.5 138.5l103 81q63 51 82.5 80t19.5 74q0 55 -46 85t-126 30 q-184 0 -356 -84zM229 0v350h377v-350h-377z" />
<glyph unicode="@" horiz-adv-x="2019" d="M96 467q0 295 132 525.5t355.5 358.5t485.5 128q260 0 453.5 -96.5t297 -274.5t103.5 -418q0 -193 -72.5 -343t-202.5 -234t-296 -84q-96 0 -160 36.5t-88 106.5q-61 -57 -134 -87t-145 -30q-141 0 -231 93.5t-90 263.5q0 180 69.5 322.5t191.5 222t271 79.5 q154 0 236 -90l16 58h281l-199 -676q-6 -20 -6 -39q0 -25 12.5 -38t32.5 -13q78 0 136.5 63.5t89 166.5t30.5 222q0 279 -157.5 429.5t-438.5 150.5q-190 0 -354 -102.5t-262.5 -286t-98.5 -414.5q0 -317 163 -504.5t478 -187.5q129 0 246 37.5t250 111.5l82 -205 q-152 -76 -285 -114.5t-293 -38.5q-264 0 -467.5 105.5t-317.5 309t-114 486.5zM782 436q0 -145 107 -145q67 0 124.5 38t110.5 111l86 295q-66 68 -147 68q-82 0 -145.5 -49t-99.5 -133t-36 -185z" />
<glyph unicode="A" horiz-adv-x="1677" d="M61 0l543 1571h467l545 -1571h-369l-108 315h-600l-109 -315h-369zM645 631h387l-194 565z" />
<glyph unicode="B" horiz-adv-x="1527" d="M164 0v1552h649q299 0 425 -106.5t126 -308.5q0 -127 -51 -213t-166 -136q131 -43 204.5 -133t73.5 -221q0 -219 -141 -326.5t-471 -107.5h-649zM532 291h281q131 0 185.5 41t54.5 131q0 88 -60.5 129t-179.5 41h-281v-342zM532 924h281q176 0 178 168q0 90 -42 130 t-136 40h-281v-338z" />
<glyph unicode="C" horiz-adv-x="1460" d="M72 772q0 229 92 412.5t276.5 290t448.5 106.5q109 0 193.5 -17.5t183.5 -58.5v-319q-174 84 -367 84q-133 0 -236.5 -64.5t-161 -177.5t-57.5 -254q0 -225 118 -361.5t327 -136.5q98 0 192.5 30t198.5 85l109 -301q-119 -61 -250 -93t-250 -32q-410 0 -613.5 215 t-203.5 592z" />
<glyph unicode="D" horiz-adv-x="1640" d="M164 0v1552h547q426 0 642 -197.5t216 -580.5q0 -385 -215 -579.5t-643 -194.5h-547zM532 311h179q252 0 368.5 112t116.5 357q0 240 -119 350.5t-366 110.5h-179v-930z" />
<glyph unicode="E" horiz-adv-x="1323" d="M164 0v1552h1026v-295h-658v-329h555v-295h-555v-338h668v-295h-1036z" />
<glyph unicode="F" horiz-adv-x="1271" d="M164 0v1552h1026v-315h-658v-340h555v-315h-555v-582h-368z" />
<glyph unicode="G" horiz-adv-x="1546" d="M72 774q0 229 89 411.5t272 289t456 106.5q135 0 228 -25.5t210 -76.5v-326q-104 57 -205.5 87t-232.5 30q-137 0 -238.5 -62.5t-154 -174t-52.5 -253.5q0 -229 117 -366.5t328 -137.5q94 0 174 29v328h-387v315h747v-839q-125 -70 -267 -107t-267 -37 q-264 0 -448.5 101.5t-276.5 283.5t-92 424z" />
<glyph unicode="H" horiz-adv-x="1677" d="M164 0v1552h368v-614h613v614h368v-1552h-368v623h-613v-623h-368z" />
<glyph unicode="I" horiz-adv-x="696" d="M164 0v1552h368v-1552h-368z" />
<glyph unicode="J" horiz-adv-x="757" d="M2 -45q51 -10 111 -10q45 0 68.5 15t33.5 55t10 120v1417h369v-1429q0 -199 -35 -303.5t-121 -147.5t-250 -43q-106 1 -186 17v309z" />
<glyph unicode="K" horiz-adv-x="1519" d="M164 0v1552h368v-548l480 548h456l-632 -729l643 -823h-461l-418 553l-68 -78v-475h-368z" />
<glyph unicode="L" horiz-adv-x="1179" d="M164 0v1552h368v-1237h566v-315h-934z" />
<glyph unicode="M" horiz-adv-x="1945" d="M164 0v1552h426l383 -573l383 573h426v-1552h-369v1024l-352 -510h-184l-345 506v-1020h-368z" />
<glyph unicode="N" horiz-adv-x="1677" d="M164 0v1552h424l557 -954v954h368v-1552h-423l-558 954v-954h-368z" />
<glyph unicode="O" horiz-adv-x="1738" d="M72 774q0 227 90 409.5t270 290t438 107.5q254 0 434.5 -107.5t271.5 -291t91 -408.5q0 -231 -91 -414.5t-270.5 -289t-435.5 -105.5q-258 0 -438 105.5t-270 289t-90 414.5zM449 774q0 -225 108.5 -361.5t312.5 -136.5q199 0 309.5 139.5t110.5 364.5q0 141 -49 252 t-144.5 174.5t-226.5 63.5q-203 0 -312 -137.5t-109 -358.5z" />
<glyph unicode="P" horiz-adv-x="1425" d="M164 0v1552h629q294 0 442.5 -130t148.5 -388q0 -252 -148.5 -383t-442.5 -131h-261v-520h-368zM532 831h261q110 0 163.5 49.5t55.5 153.5q0 109 -53.5 158t-165.5 49h-261v-410z" />
<glyph unicode="Q" horiz-adv-x="1738" d="M72 774q0 227 90 409.5t270 290t438 107.5q254 0 434.5 -107.5t271.5 -291t91 -408.5q0 -199 -66.5 -362.5t-197.5 -272.5l239 -270h-417l-109 127q-111 -31 -246 -31q-258 0 -438 105.5t-270 289t-90 414.5zM449 774q0 -225 108.5 -361.5t312.5 -136.5h4l-180 209h410 l67 -77q57 68 88 163t31 209q0 141 -49 252t-144.5 174.5t-226.5 63.5q-203 0 -312 -137.5t-109 -358.5z" />
<glyph unicode="R" horiz-adv-x="1517" d="M164 0v1552h629q591 0 591 -495q0 -356 -309 -457l371 -600h-410l-331 561h-173v-561h-368zM532 872h261q219 0 219 183q0 96 -53.5 141t-165.5 45h-261v-369z" />
<glyph unicode="S" horiz-adv-x="1374" d="M115 82v332q260 -137 571 -138q121 0 177.5 41t56.5 109t-50.5 101.5t-179.5 68.5l-139 39q-123 35 -213 81t-153.5 138t-63.5 238q0 240 146.5 364.5t412.5 124.5q160 0 280.5 -28.5t247.5 -88.5v-319q-233 125 -528 125q-109 0 -152 -37t-43 -107q0 -47 20.5 -74.5 t63.5 -46t129 -42.5l142 -39q131 -37 225 -86.5t156.5 -145.5t62.5 -248q-2 -223 -160.5 -351t-437.5 -128q-164 0 -303 27.5t-268 89.5z" />
<glyph unicode="T" horiz-adv-x="1380" d="M82 1237v315h1216v-315h-424v-1237h-368v1237h-424z" />
<glyph unicode="U" horiz-adv-x="1679" d="M164 610v942h368v-942q0 -166 77 -250t231 -84t230.5 84t76.5 250v942h369v-942q0 -309 -168 -477t-508 -168q-338 0 -507 168t-169 477z" />
<glyph unicode="V" horiz-adv-x="1677" d="M61 1552h379l400 -1190l397 1190h379l-543 -1570h-467z" />
<glyph unicode="W" horiz-adv-x="2453" d="M102 1552h359l260 -1142l291 1142h430l293 -1142l258 1142h358l-379 -1570h-467l-278 1054l-277 -1054h-467z" />
<glyph unicode="X" horiz-adv-x="1662" d="M61 0l560 801l-523 751h424l312 -469l309 469h424l-523 -751l558 -801h-426l-345 520l-344 -520h-426z" />
<glyph unicode="Y" horiz-adv-x="1501" d="M41 1552h369l340 -624l342 624h368l-530 -952v-600h-361v600z" />
<glyph unicode="Z" horiz-adv-x="1511" d="M164 0v311l692 926h-666v315h1131v-311l-690 -926h758v-315h-1225z" />
<glyph unicode="[" horiz-adv-x="704" d="M123 -264v1999h510v-316h-150v-1368h160v-315h-520z" />
<glyph unicode="\" horiz-adv-x="894" d="M-51 1907h360l637 -2269h-360z" />
<glyph unicode="]" horiz-adv-x="704" d="M61 1419v316h521v-1999h-510v315h149v1368h-160z" />
<glyph unicode="^" horiz-adv-x="1124" d="M-10 373l426 725h291l428 -725l-283 -150l-291 496l-291 -496z" />
<glyph unicode="_" horiz-adv-x="1024" d="M0 -158h1024v-315h-1024v315z" />
<glyph unicode="`" horiz-adv-x="1331" d="M362 1657h406l201 -314h-359z" />
<glyph unicode="a" horiz-adv-x="1265" d="M61 365q0 186 114 286.5t317 100.5q168 0 284 -62q-2 57 -17.5 91t-61.5 52.5t-134 18.5h-233v307h264q225 0 343 -60.5t157 -160.5t39 -256v-682h-357v94q-72 -66 -141.5 -93.5t-153.5 -27.5q-197 0 -308.5 103.5t-111.5 288.5zM422 369q0 -68 35 -94.5t100 -26.5 q104 0 219 94v109q-98 47 -198 47q-74 0 -115 -32t-41 -97z" />
<glyph unicode="b" horiz-adv-x="1415" d="M143 0v1733h357v-652q145 111 311 111q156 0 275.5 -68.5t188 -207t68.5 -336.5q0 -201 -68.5 -339.5t-188 -207t-275.5 -68.5q-166 0 -311 111v-76h-357zM500 365q117 -84 233 -84q119 0 179.5 75.5t60.5 223.5q0 145 -60.5 221t-179.5 76q-117 0 -233 -84v-428z" />
<glyph unicode="c" horiz-adv-x="1118" d="M72 582q0 291 151.5 449.5t438.5 160.5q104 0 177.5 -12.5t153.5 -44.5v-324q-76 37 -142.5 51.5t-148.5 14.5q-137 -2 -198.5 -76t-61.5 -217q0 -147 59.5 -225t190.5 -78q74 0 142.5 22.5t142.5 69.5l100 -295q-188 -113 -415 -113q-287 2 -438.5 163t-151.5 454z" />
<glyph unicode="d" horiz-adv-x="1415" d="M72 580q0 199 68.5 337t188.5 206.5t275 68.5q166 0 311 -111v652h357v-1733h-357v76q-145 -111 -311 -111q-156 0 -275.5 68.5t-188 207t-68.5 339.5zM442 580q0 -147 60.5 -223t179.5 -76q116 0 233 84v428q-117 84 -233 84q-119 0 -179.5 -76t-60.5 -221z" />
<glyph unicode="e" horiz-adv-x="1249" d="M72 582q0 193 75.5 331t204.5 208.5t289 70.5q256 0 401.5 -148.5t145.5 -433.5v-141h-733q22 -98 92.5 -153.5t208.5 -55.5q80 0 152.5 19.5t166.5 66.5l92 -274q-106 -59 -210.5 -83t-249.5 -24q-203 0 -345.5 77t-216 216t-73.5 324zM457 733h356q-8 86 -50 125 t-122 39q-74 0 -120 -37t-64 -127z" />
<glyph unicode="f" horiz-adv-x="833" d="M61 844v315h140v291q0 150 89 229.5t271 79.5q55 0 103.5 -7t117.5 -21v-304q-53 16 -120 17q-60 0 -82.5 -27.5t-22.5 -95.5v-162h225v-315h-225v-844h-356v844h-140z" />
<glyph unicode="g" horiz-adv-x="1404" d="M61 600q0 193 69 326t188.5 199.5t275.5 66.5q166 0 311 -111v78h357v-1155q0 -147 -62.5 -265t-184.5 -185.5t-292 -67.5q-166 0 -293 16.5t-237 57.5v327q109 -45 219 -65.5t198 -20.5q154 0 224.5 57.5t70.5 166.5v92q-145 -111 -311 -111q-244 0 -388.5 144.5 t-144.5 449.5zM432 600q0 -154 58.5 -216t181.5 -62q116 0 233 84v387q-117 84 -233 84q-119 0 -179.5 -71t-60.5 -206z" />
<glyph unicode="h" horiz-adv-x="1417" d="M143 0v1733h357v-666q76 59 154.5 88t168.5 29q232 0 346.5 -117t114.5 -371v-696h-356v696q0 84 -42 128t-143 44q-119 0 -243 -98v-770h-357z" />
<glyph unicode="i" horiz-adv-x="643" d="M143 0v1159h357v-1159h-357zM143 1343v310h357v-310h-357z" />
<glyph unicode="j" horiz-adv-x="643" d="M-82 -180q53 -16 121 -17q59 0 81.5 28t22.5 95v1239h357v-1368q0 -150 -89 -229.5t-272 -79.5q-55 0 -103 7t-118 22v303zM143 1343v310h357v-310h-357z" />
<glyph unicode="k" horiz-adv-x="1345" d="M143 0v1733h357v-1002l362 387h426l-461 -487l498 -631h-426l-305 387l-94 -100v-287h-357z" />
<glyph unicode="l" horiz-adv-x="776" d="M143 283v1450h357v-1321q0 -68 22.5 -95.5t81.5 -27.5q68 0 121 16v-303q-70 -14 -118 -21.5t-103 -7.5q-182 0 -271.5 80t-89.5 230z" />
<glyph unicode="m" horiz-adv-x="2119" d="M143 0v1159h357v-90q72 59 144.5 87t158.5 28q272 0 373 -174q92 90 179 132t191 42q221 0 331 -117t110 -371v-696h-357v696q0 84 -37 128t-127 44q-111 0 -225 -98q2 -23 2 -74v-696h-356v696q0 84 -37 128t-127 44q-109 0 -223 -94v-774h-357z" />
<glyph unicode="n" horiz-adv-x="1417" d="M143 0v1159h357v-92q76 59 154.5 88t168.5 29q232 0 346.5 -117t114.5 -371v-696h-356v696q0 84 -42 128t-143 44q-119 0 -243 -98v-770h-357z" />
<glyph unicode="o" horiz-adv-x="1380" d="M72 580q0 172 70.5 311t210 220t339.5 81q199 0 338 -81t209 -220t70 -311q0 -174 -70 -313.5t-209 -220.5t-338 -81q-200 0 -339.5 81t-210 220.5t-70.5 313.5zM442 580q0 -152 63.5 -232t186.5 -80q121 0 183.5 80t62.5 232q0 150 -62.5 229.5t-183.5 79.5 q-123 0 -186.5 -80t-63.5 -229z" />
<glyph unicode="p" horiz-adv-x="1415" d="M143 -479v1638h357v-78q145 111 311 111q156 0 275.5 -68.5t188 -207t68.5 -336.5q0 -201 -68.5 -339.5t-188 -207t-275.5 -68.5q-166 0 -311 111v-555h-357zM500 365q117 -84 233 -84q119 0 179.5 75.5t60.5 223.5q0 145 -60.5 221t-179.5 76q-117 0 -233 -84v-428z" />
<glyph unicode="q" horiz-adv-x="1415" d="M72 580q0 199 68.5 337t188.5 206.5t275 68.5q166 0 311 -111v78h357v-1638h-357v555q-145 -111 -311 -111q-156 0 -275.5 68.5t-188 207t-68.5 339.5zM442 580q0 -147 60.5 -223t179.5 -76q116 0 233 84v428q-117 84 -233 84q-119 0 -179.5 -76t-60.5 -221z" />
<glyph unicode="r" horiz-adv-x="923" d="M143 0v1159h357v-102q76 63 152.5 95t162.5 32h47v-316h-47q-158 0 -315 -112v-756h-357z" />
<glyph unicode="s" horiz-adv-x="1157" d="M92 70v313q117 -66 235.5 -94.5t254.5 -28.5q133 0 133 80q0 33 -18.5 49.5t-59.5 26.5l-199 41q-174 35 -254 118.5t-80 229.5q0 197 122 292t370 95q102 0 214 -20.5t212 -53.5v-303q-78 37 -189.5 59.5t-218.5 22.5q-84 0 -116.5 -16.5t-32.5 -51.5q0 -27 16.5 -38 t55.5 -19l198 -41q180 -37 260 -121t80 -250q0 -199 -133 -297t-360 -98q-146 0 -257.5 23.5t-232.5 81.5z" />
<glyph unicode="t" horiz-adv-x="901" d="M61 803v315h160v389h357v-389h262v-315h-262v-391q0 -68 22.5 -95.5t81.5 -27.5q68 0 121 16v-303q-70 -14 -118 -21.5t-103 -7.5q-182 0 -271.5 80t-89.5 230v520h-160z" />
<glyph unicode="u" horiz-adv-x="1417" d="M133 463v696h356v-696q0 -84 42 -128t143 -44q119 0 244 98v770h356v-1159h-356v92q-76 -59 -155 -88t-169 -29q-231 0 -346 117t-115 371z" />
<glyph unicode="v" horiz-adv-x="1300" d="M41 1159h365l245 -852l244 852h365l-375 -1177h-467z" />
<glyph unicode="w" horiz-adv-x="1970" d="M61 1159h365l152 -729l194 729h426l195 -729l151 729h365l-293 -1177h-426l-205 675l-203 -675h-426z" />
<glyph unicode="x" horiz-adv-x="1282" d="M41 0l379 604l-359 555h416l166 -280l168 280h412l-371 -571l389 -588h-416l-188 313l-180 -313h-416z" />
<glyph unicode="y" horiz-adv-x="1218" d="M41 1159h365l202 -657l226 657h344l-461 -1341q-66 -188 -169.5 -260t-277.5 -72q-109 0 -196 31v303q61 -18 131 -19q84 0 133 30t80 116l16 47z" />
<glyph unicode="z" horiz-adv-x="1177" d="M133 0v311l504 537h-467v311h881v-311l-502 -537h547v-311h-963z" />
<glyph unicode="{" horiz-adv-x="831" d="M72 578v315h63q37 0 55.5 15.5t26.5 55.5t8 119v301q0 137 40 213t126 107t234 31q74 0 145 -9v-315q-41 8 -94 8t-71.5 -30.5t-18.5 -118.5v-248q0 -96 -16.5 -152.5t-56.5 -87t-114 -47.5q106 -27 146.5 -88t40.5 -198v-248q0 -88 18.5 -119t71.5 -31t94 8v-315 q-72 -8 -145 -8q-147 0 -233.5 30.5t-126.5 106.5t-40 213v301q0 80 -8 120t-26.5 55.5t-55.5 15.5h-63z" />
<glyph unicode="|" horiz-adv-x="688" d="M164 -264v1999h360v-1999h-360z" />
<glyph unicode="}" horiz-adv-x="663" d="M-106 59v-315q72 -8 145 -8q147 0 233.5 30.5t126.5 106.5t40 213v301q0 80 8 120t26.5 55.5t55.5 15.5h63v315h-63q-37 0 -55.5 15.5t-26.5 55.5t-8 119v301q0 137 -40 213t-126 107t-234 31q-74 0 -145 -9v-315q41 8 94 8t71.5 -30.5t18.5 -118.5v-248 q0 -96 16.5 -152.5t56.5 -87t114 -47.5q-106 -27 -146.5 -88t-40.5 -198v-248q0 -88 -18.5 -119t-71.5 -31t-94 8zM0 0z" />
<glyph unicode="~" d="M66 748q88 90 158.5 133t152.5 43q61 0 111.5 -16.5t115.5 -49.5q8 -4 37 -16.5t50.5 -18.5t39.5 -6q41 0 78 18.5t104 71.5l148 -213q-88 -90 -159 -133t-152 -43q-62 0 -112 16.5t-116 49.5q-8 4 -36.5 16t-50 18.5t-40.5 6.5q-41 0 -77.5 -18.5t-104.5 -71.5z" />
<glyph unicode="&#xa2;" d="M59 561q0 250 125 399.5t363 182.5v170h299v-172q88 -12 176 -47v-324q-84 41 -176 57v-528q80 23 160 74l100 -295q-123 -71 -260 -98v-177h-299v170q-238 33 -363 185.5t-125 402.5zM430 563q0 -189 117 -250v490q-117 -59 -117 -240z" />
<glyph unicode="&#xa3;" d="M76 0v315h194v246h-133v316h133v79q0 156 38 254.5t133.5 148.5t265.5 50q80 0 155.5 -12.5t112.5 -24.5v-321q-104 43 -209 43q-70 0 -104.5 -31t-34.5 -98v-88h250v-316h-250v-246h442v-315h-993z" />
<glyph unicode="&#xa5;" d="M2 1380h348l213 -456l215 456h348l-295 -600h213v-254h-301v-71h301v-254h-301v-201h-360v201h-301v254h301v71h-301v254h213z" />
<glyph unicode="&#xa7;" d="M43 580q0 172 168 262q-76 80 -76 219q0 166 119 257t326 91q111 0 199.5 -13.5t172.5 -45.5v-303q-154 72 -372 71q-121 0 -121 -55q0 -23 15 -35t46 -20l232 -64q98 -27 167.5 -60.5t116.5 -98t47 -167.5q0 -172 -168 -262q76 -80 76 -219q0 -166 -118.5 -257 t-325.5 -91q-111 0 -200 13.5t-173 45.5v304q154 -72 373 -72q121 0 121 55q0 23 -15.5 35t-46.5 20l-231 64q-98 27 -168 60.5t-117 98t-47 167.5zM367 635q0 -47 27.5 -67.5t111.5 -45.5l190 -53q63 35 64 94q0 47 -27.5 67.5t-111.5 45.5l-191 53q-63 -35 -63 -94z" />
<glyph unicode="&#xa8;" horiz-adv-x="1331" d="M283 1343v310h315v-310h-315zM733 1343v310h316v-310h-316z" />
<glyph unicode="&#xa9;" horiz-adv-x="1914" d="M137 774q0 217 110.5 402.5t299 295t411.5 109.5q219 0 407.5 -109.5t300.5 -295t112 -402.5q0 -227 -111 -412.5t-299 -291t-410 -105.5q-225 0 -413.5 105.5t-298 290t-109.5 413.5zM389 774q0 -164 77 -296t207 -207.5t285 -75.5q152 0 282 76.5t208 209.5t78 297 q0 154 -79 286t-210 210t-279 78q-154 0 -284.5 -79t-207.5 -211t-77 -288zM506 774q0 201 125 328t368 127q63 0 111.5 -9.5t101.5 -31.5v-258q-92 49 -213 49q-96 0 -153.5 -56.5t-57.5 -144.5q0 -98 54.5 -153.5t156.5 -55.5q61 0 119 14.5t123 43.5l41 -238 q-68 -35 -141.5 -53.5t-141.5 -18.5q-159 0 -270 60.5t-167 164t-56 232.5z" />
<glyph unicode="&#xab;" horiz-adv-x="1568" d="M184 428v250l422 375l211 -201l-328 -299l328 -299l-211 -201zM749 428v250l422 375l211 -201l-328 -299l328 -299l-211 -201zM750 53z" />
<glyph unicode="&#xad;" horiz-adv-x="929" d="M164 451v311h602v-311h-602z" />
<glyph unicode="&#xae;" horiz-adv-x="1476" d="M145 989q0 156 80 291t216.5 215t297.5 80q160 0 296 -80t216 -215t80 -291q0 -166 -80 -300t-216 -211t-296 -77q-164 0 -300 76t-215 211t-79 301zM328 989q0 -117 55 -210t149.5 -146t206.5 -53q111 0 205 53t149.5 148.5t55.5 211.5q0 107 -57.5 200t-151.5 148.5 t-201 55.5q-111 0 -206 -55.5t-150 -149.5t-55 -203zM475 692v594h260q117 0 182.5 -50t65.5 -157q0 -131 -100 -180l129 -207h-203l-107 176h-49v-176h-178zM653 1018h43q59 0 82 13t23 48q0 31 -22.5 44.5t-82.5 13.5h-43v-119z" />
<glyph unicode="&#xb0;" horiz-adv-x="968" d="M55 1022q0 117 57.5 215t157 155.5t215.5 57.5q117 0 215.5 -57.5t155.5 -155.5t57 -215t-57 -216t-155.5 -156.5t-215.5 -57.5q-116 0 -215.5 57.5t-157 156.5t-57.5 216zM338 1022q0 -68 42 -114t105 -46q64 0 105 46t41 114t-41 113t-105 45q-63 0 -105 -45t-42 -113z " />
<glyph unicode="&#xb4;" horiz-adv-x="1331" d="M362 1343l201 314h406l-248 -314h-359z" />
<glyph unicode="&#xb6;" horiz-adv-x="1632" d="M72 1014q0 539 526 538h870v-1757h-319v1446h-172v-1446h-320v684h-59q-262 0 -394 137.5t-132 397.5z" />
<glyph unicode="&#xb7;" horiz-adv-x="581" d="M102 537v370h377v-370h-377z" />
<glyph unicode="&#xb8;" horiz-adv-x="1331" d="M406 -303q94 -43 188 -43q47 0 65.5 9t18.5 28q0 20 -21.5 29.5t-74.5 9.5q-84 0 -152 -23l82 295h227l-30 -92q104 -2 160.5 -59.5t56.5 -151.5q0 -109 -74 -173.5t-217 -64.5q-68 0 -121 8.5t-108 32.5v195z" />
<glyph unicode="&#xbb;" horiz-adv-x="1568" d="M186 53zM187 254l211 -201l422 375v250l-422 375l-211 -201l328 -299zM752 254l211 -201l422 375v250l-422 375l-211 -201l328 -299z" />
<glyph unicode="&#xd3;" horiz-adv-x="1738" d="M72 0zM72 774q0 227 90 409.5t270 290t438 107.5q254 0 434.5 -107.5t271.5 -291t91 -408.5q0 -231 -91 -414.5t-270.5 -289t-435.5 -105.5q-258 0 -438 105.5t-270 289t-90 414.5zM449 774q0 -225 108.5 -361.5t312.5 -136.5q199 0 309.5 139.5t110.5 364.5 q0 141 -49 252t-144.5 174.5t-226.5 63.5q-203 0 -312 -137.5t-109 -358.5zM694 1712l201 313h406l-248 -313h-359z" />
<glyph unicode="&#xf3;" horiz-adv-x="1380" d="M72 0zM72 580q0 172 70.5 311t210 220t339.5 81q199 0 338 -81t209 -220t70 -311q0 -174 -70 -313.5t-209 -220.5t-338 -81q-200 0 -339.5 81t-210 220.5t-70.5 313.5zM442 580q0 -152 63.5 -232t186.5 -80q121 0 183.5 80t62.5 232q0 150 -62.5 229.5t-183.5 79.5 q-123 0 -186.5 -80t-63.5 -229zM507 1343l201 314h406l-248 -314h-359z" />
<glyph unicode="&#x100;" horiz-adv-x="1677" d="M61 0l543 1571h467l545 -1571h-369l-108 315h-600l-109 -315h-369zM61 0zM522 1759v221h633v-221h-633zM645 631h387l-194 565z" />
<glyph unicode="&#x101;" horiz-adv-x="1265" d="M61 0zM61 365q0 186 114 286.5t317 100.5q168 0 284 -62q-2 57 -17.5 91t-61.5 52.5t-134 18.5h-233v307h264q225 0 343 -60.5t157 -160.5t39 -256v-682h-357v94q-72 -66 -141.5 -93.5t-153.5 -27.5q-197 0 -308.5 103.5t-111.5 288.5zM287 1391v221h633v-221h-633z M422 369q0 -68 35 -94.5t100 -26.5q104 0 219 94v109q-98 47 -198 47q-74 0 -115 -32t-41 -97z" />
<glyph unicode="&#x102;" horiz-adv-x="1677" d="M61 0l543 1571h467l545 -1571h-369l-108 315h-600l-109 -315h-369zM61 0zM493 1976v45h267v-36q0 -47 19.5 -68t62.5 -21t62.5 20.5t19.5 68.5v36h266v-45q0 -281 -348 -280q-349 -1 -349 280zM645 631h387l-194 565z" />
<glyph unicode="&#x103;" horiz-adv-x="1265" d="M61 0zM61 365q0 186 114 286.5t317 100.5q168 0 284 -62q-2 57 -17.5 91t-61.5 52.5t-134 18.5h-233v307h264q225 0 343 -60.5t157 -160.5t39 -256v-682h-357v94q-72 -66 -141.5 -93.5t-153.5 -27.5q-197 0 -308.5 103.5t-111.5 288.5zM258 1608v45h267v-37 q0 -47 19.5 -67.5t62.5 -20.5t62.5 20.5t19.5 67.5v37h266v-45q0 -281 -348 -281q-349 0 -349 281zM422 369q0 -68 35 -94.5t100 -26.5q104 0 219 94v109q-98 47 -198 47q-74 0 -115 -32t-41 -97z" />
<glyph unicode="&#x104;" horiz-adv-x="1677" d="M61 0l543 1571h467l545 -1571h-369l-108 315h-600l-109 -315h-369zM61 0zM645 631h387l-194 565zM1157 -328q0 86 45 171t137 157h277q-190 -147 -191 -268q0 -72 82 -72q53 0 109 25v-195q-86 -29 -168 -29q-146 0 -218.5 55.5t-72.5 155.5z" />
<glyph unicode="&#x105;" horiz-adv-x="1265" d="M61 365q0 186 114 286.5t317 100.5q168 0 284 -62q-2 57 -17.5 91t-61.5 52.5t-134 18.5h-233v307h264q225 0 343 -60.5t157 -160.5t39 -256v-682q-190 -147 -191 -268q0 -72 82 -72q53 0 109 25v-195q-86 -29 -168 -29q-145 0 -218 55.5t-73 155.5q0 86 45 171t137 157 h-80v94q-72 -66 -141.5 -93.5t-153.5 -27.5q-197 0 -308.5 103.5t-111.5 288.5zM422 369q0 -68 35 -94.5t100 -26.5q104 0 219 94v109q-98 47 -198 47q-74 0 -115 -32t-41 -97z" />
<glyph unicode="&#x106;" horiz-adv-x="1460" d="M72 0zM72 772q0 229 92 412.5t276.5 290t448.5 106.5q109 0 193.5 -17.5t183.5 -58.5v-319q-174 84 -367 84q-133 0 -236.5 -64.5t-161 -177.5t-57.5 -254q0 -225 118 -361.5t327 -136.5q98 0 192.5 30t198.5 85l109 -301q-119 -61 -250 -93t-250 -32q-410 0 -613.5 215 t-203.5 592zM630 1712l201 313h406l-248 -313h-359z" />
<glyph unicode="&#x107;" horiz-adv-x="1118" d="M72 0zM72 582q0 291 151.5 449.5t438.5 160.5q104 0 177.5 -12.5t153.5 -44.5v-324q-76 37 -142.5 51.5t-148.5 14.5q-137 -2 -198.5 -76t-61.5 -217q0 -147 59.5 -225t190.5 -78q74 0 142.5 22.5t142.5 69.5l100 -295q-188 -113 -415 -113q-287 2 -438.5 163t-151.5 454 zM456 1343l201 314h406l-248 -314h-359z" />
<glyph unicode="&#x10a;" horiz-adv-x="1460" d="M72 0zM72 772q0 229 92 412.5t276.5 290t448.5 106.5q109 0 193.5 -17.5t183.5 -58.5v-319q-174 84 -367 84q-133 0 -236.5 -64.5t-161 -177.5t-57.5 -254q0 -225 118 -361.5t327 -136.5q98 0 192.5 30t198.5 85l109 -301q-119 -61 -250 -93t-250 -32q-410 0 -613.5 215 t-203.5 592zM632 1712v309h357v-309h-357z" />
<glyph unicode="&#x10b;" horiz-adv-x="1118" d="M72 0zM72 582q0 291 151.5 449.5t438.5 160.5q104 0 177.5 -12.5t153.5 -44.5v-324q-76 37 -142.5 51.5t-148.5 14.5q-137 -2 -198.5 -76t-61.5 -217q0 -147 59.5 -225t190.5 -78q74 0 142.5 22.5t142.5 69.5l100 -295q-188 -113 -415 -113q-287 2 -438.5 163t-151.5 454 zM464 1343v310h357v-310h-357z" />
<glyph unicode="&#x10c;" horiz-adv-x="1460" d="M72 0zM72 772q0 229 92 412.5t276.5 290t448.5 106.5q109 0 193.5 -17.5t183.5 -58.5v-319q-174 84 -367 84q-133 0 -236.5 -64.5t-161 -177.5t-57.5 -254q0 -225 118 -361.5t327 -136.5q98 0 192.5 30t198.5 85l109 -301q-119 -61 -250 -93t-250 -32q-410 0 -613.5 215 t-203.5 592zM379 2025h344l84 -186l82 186h344l-187 -313h-481z" />
<glyph unicode="&#x10d;" horiz-adv-x="1118" d="M72 0zM72 582q0 291 151.5 449.5t438.5 160.5q104 0 177.5 -12.5t153.5 -44.5v-324q-76 37 -142.5 51.5t-148.5 14.5q-137 -2 -198.5 -76t-61.5 -217q0 -147 59.5 -225t190.5 -78q74 0 142.5 22.5t142.5 69.5l100 -295q-188 -113 -415 -113q-287 2 -438.5 163t-151.5 454 zM211 1657h344l84 -187l82 187h344l-187 -314h-481z" />
<glyph unicode="&#x10e;" horiz-adv-x="1640" d="M164 0v1552h547q426 0 642 -197.5t216 -580.5q0 -385 -215 -579.5t-643 -194.5h-547zM164 0zM394 2025h344l84 -186l82 186h344l-187 -313h-481zM532 311h179q252 0 368.5 112t116.5 357q0 240 -119 350.5t-366 110.5h-179v-930z" />
<glyph unicode="&#x10f;" horiz-adv-x="1415" d="M72 0zM72 580q0 199 68.5 337t188.5 206.5t275 68.5q166 0 311 -111v652h357v-1733h-357v76q-145 -111 -311 -111q-156 0 -275.5 68.5t-188 207t-68.5 339.5zM442 580q0 -147 60.5 -223t179.5 -76q116 0 233 84v428q-117 84 -233 84q-119 0 -179.5 -76t-60.5 -221z M1333 1139l102 413h357l-156 -413h-303z" />
<glyph unicode="&#x110;" horiz-adv-x="1640" d="M14 0zM14 649v262h150v641h547q426 0 642 -197.5t216 -580.5q0 -385 -215 -579.5t-643 -194.5h-547v649h-150zM532 311h179q252 0 368.5 112t116.5 357q0 240 -119 350.5t-366 110.5h-179v-330h304v-262h-304v-338z" />
<glyph unicode="&#x111;" horiz-adv-x="1415" d="M72 580q0 199 68.5 337t188.5 206.5t275 68.5q166 0 311 -111v201h-321v262h321v189h357v-189h143v-262h-143v-1282h-357v76q-145 -111 -311 -111q-156 0 -275.5 68.5t-188 207t-68.5 339.5zM442 580q0 -147 60.5 -223t179.5 -76q116 0 233 84v428q-117 84 -233 84 q-119 0 -179.5 -76t-60.5 -221z" />
<glyph unicode="&#x112;" horiz-adv-x="1323" d="M164 0v1552h1026v-295h-658v-329h555v-295h-555v-338h668v-295h-1036zM164 0zM364 1759v221h633v-221h-633z" />
<glyph unicode="&#x113;" horiz-adv-x="1249" d="M72 0zM72 582q0 193 75.5 331t204.5 208.5t289 70.5q256 0 401.5 -148.5t145.5 -433.5v-141h-733q22 -98 92.5 -153.5t208.5 -55.5q80 0 152.5 19.5t166.5 66.5l92 -274q-106 -59 -210.5 -83t-249.5 -24q-203 0 -345.5 77t-216 216t-73.5 324zM328 1391v221h633v-221 h-633zM457 733h356q-8 86 -50 125t-122 39q-74 0 -120 -37t-64 -127z" />
<glyph unicode="&#x116;" horiz-adv-x="1323" d="M164 0v1552h1026v-295h-658v-329h555v-295h-555v-338h668v-295h-1036zM164 0zM507 1712v309h357v-309h-357z" />
<glyph unicode="&#x117;" horiz-adv-x="1249" d="M72 0zM72 582q0 193 75.5 331t204.5 208.5t289 70.5q256 0 401.5 -148.5t145.5 -433.5v-141h-733q22 -98 92.5 -153.5t208.5 -55.5q80 0 152.5 19.5t166.5 66.5l92 -274q-106 -59 -210.5 -83t-249.5 -24q-203 0 -345.5 77t-216 216t-73.5 324zM457 733h356q-8 86 -50 125 t-122 39q-74 0 -120 -37t-64 -127zM471 1343v310h357v-310h-357z" />
<glyph unicode="&#x118;" horiz-adv-x="1323" d="M164 0v1552h1026v-295h-658v-329h555v-295h-555v-338h668v-295h-1036zM164 0zM741 -328q0 86 45 171t137 157h277q-190 -147 -191 -268q0 -72 82 -72q53 0 109 25v-195q-86 -29 -168 -29q-146 0 -218.5 55.5t-72.5 155.5z" />
<glyph unicode="&#x119;" horiz-adv-x="1249" d="M72 582q0 193 75.5 331t204.5 208.5t289 70.5q256 0 401.5 -148.5t145.5 -433.5v-141h-733q22 -98 92.5 -153.5t208.5 -55.5q80 0 152.5 19.5t166.5 66.5l92 -274q-74 -43 -178 -76q-86 -68 -136 -135.5t-50 -128.5q0 -72 82 -72q53 0 108 25v-195q-86 -29 -168 -29 q-145 0 -217.5 55.5t-72.5 155.5q0 76 34.5 151t106.5 142q-193 6 -329 85t-205.5 215t-69.5 317zM457 733h356q-8 86 -50 125t-122 39q-74 0 -120 -37t-64 -127z" />
<glyph unicode="&#x11a;" horiz-adv-x="1323" d="M164 0v1552h1026v-295h-658v-329h555v-295h-555v-338h668v-295h-1036zM164 0zM254 2025h344l84 -186l82 186h344l-187 -313h-481z" />
<glyph unicode="&#x11b;" horiz-adv-x="1249" d="M72 0zM72 582q0 193 75.5 331t204.5 208.5t289 70.5q256 0 401.5 -148.5t145.5 -433.5v-141h-733q22 -98 92.5 -153.5t208.5 -55.5q80 0 152.5 19.5t166.5 66.5l92 -274q-106 -59 -210.5 -83t-249.5 -24q-203 0 -345.5 77t-216 216t-73.5 324zM218 1657h344l84 -187 l82 187h344l-187 -314h-481zM457 733h356q-8 86 -50 125t-122 39q-74 0 -120 -37t-64 -127z" />
<glyph unicode="&#x11e;" horiz-adv-x="1546" d="M72 0zM72 774q0 229 89 411.5t272 289t456 106.5q135 0 228 -25.5t210 -76.5v-326q-104 57 -205.5 87t-232.5 30q-137 0 -238.5 -62.5t-154 -174t-52.5 -253.5q0 -229 117 -366.5t328 -137.5q94 0 174 29v328h-387v315h747v-839q-125 -70 -267 -107t-267 -37 q-264 0 -448.5 101.5t-276.5 283.5t-92 424zM510 1976v45h267v-36q0 -47 19.5 -68t62.5 -21t62.5 20.5t19.5 68.5v36h266v-45q0 -281 -348 -280q-349 -1 -349 280z" />
<glyph unicode="&#x11f;" horiz-adv-x="1404" d="M61 0zM61 600q0 193 69 326t188.5 199.5t275.5 66.5q166 0 311 -111v78h357v-1155q0 -147 -62.5 -265t-184.5 -185.5t-292 -67.5q-166 0 -293 16.5t-237 57.5v327q109 -45 219 -65.5t198 -20.5q154 0 224.5 57.5t70.5 166.5v92q-145 -111 -311 -111q-244 0 -388.5 144.5 t-144.5 449.5zM356 1608v45h267v-37q0 -47 19.5 -67.5t62.5 -20.5t62.5 20.5t19.5 67.5v37h266v-45q0 -281 -348 -281q-349 0 -349 281zM432 600q0 -154 58.5 -216t181.5 -62q116 0 233 84v387q-117 84 -233 84q-119 0 -179.5 -71t-60.5 -206z" />
<glyph unicode="&#x120;" horiz-adv-x="1546" d="M72 0zM72 774q0 229 89 411.5t272 289t456 106.5q135 0 228 -25.5t210 -76.5v-326q-104 57 -205.5 87t-232.5 30q-137 0 -238.5 -62.5t-154 -174t-52.5 -253.5q0 -229 117 -366.5t328 -137.5q94 0 174 29v328h-387v315h747v-839q-125 -70 -267 -107t-267 -37 q-264 0 -448.5 101.5t-276.5 283.5t-92 424zM682 1712v309h357v-309h-357z" />
<glyph unicode="&#x121;" horiz-adv-x="1404" d="M61 0zM61 600q0 193 69 326t188.5 199.5t275.5 66.5q166 0 311 -111v78h357v-1155q0 -147 -62.5 -265t-184.5 -185.5t-292 -67.5q-166 0 -293 16.5t-237 57.5v327q109 -45 219 -65.5t198 -20.5q154 0 224.5 57.5t70.5 166.5v92q-145 -111 -311 -111q-244 0 -388.5 144.5 t-144.5 449.5zM432 600q0 -154 58.5 -216t181.5 -62q116 0 233 84v387q-117 84 -233 84q-119 0 -179.5 -71t-60.5 -206zM528 1343v310h357v-310h-357z" />
<glyph unicode="&#x122;" horiz-adv-x="1546" d="M72 0zM72 774q0 229 89 411.5t272 289t456 106.5q135 0 228 -25.5t210 -76.5v-326q-104 57 -205.5 87t-232.5 30q-137 0 -238.5 -62.5t-154 -174t-52.5 -253.5q0 -229 117 -366.5t328 -137.5q94 0 174 29v328h-387v315h747v-839q-125 -70 -267 -107t-267 -37 q-264 0 -448.5 101.5t-276.5 283.5t-92 424zM614 -504l66 340h368l-98 -340h-336z" />
<glyph unicode="&#x123;" horiz-adv-x="1404" d="M61 0zM61 600q0 193 69 326t188.5 199.5t275.5 66.5q166 0 311 -111v78h357v-1155q0 -147 -62.5 -265t-184.5 -185.5t-292 -67.5q-166 0 -293 16.5t-237 57.5v327q109 -45 219 -65.5t198 -20.5q154 0 224.5 57.5t70.5 166.5v92q-145 -111 -311 -111q-244 0 -388.5 144.5 t-144.5 449.5zM432 600q0 -154 58.5 -216t181.5 -62q116 0 233 84v387q-117 84 -233 84q-119 0 -179.5 -71t-60.5 -206zM520 1386l99 340h335l-65 -340h-369z" />
<glyph unicode="&#x126;" horiz-adv-x="1587" d="M164 0v1552h368v-163h613v163h368v-1552h-368v623h-613v-623h-368zM532 938h613v139h-613v-139z" />
<glyph unicode="&#x127;" horiz-adv-x="1417" d="M-6 1282v262h149v189h357v-189h315v-262h-315v-215q76 59 154.5 88t168.5 29q232 0 346.5 -117t114.5 -371v-696h-356v696q0 84 -42 128t-143 44q-119 0 -243 -98v-770h-357v1282h-149z" />
<glyph unicode="&#x12a;" horiz-adv-x="696" d="M31 0zM31 1759v221h633v-221h-633zM164 0v1552h368v-1552h-368z" />
<glyph unicode="&#x12b;" horiz-adv-x="643" d="M4 0zM4 1391v221h633v-221h-633zM143 0v1159h357v-1159h-357z" />
<glyph unicode="&#x12e;" horiz-adv-x="696" d="M29 -328q0 86 45 171t137 157h-47v1552h368v-1552h-45q-190 -147 -190 -268q0 -72 82 -72q53 0 108 25v-195q-86 -29 -168 -29q-145 0 -217.5 55.5t-72.5 155.5z" />
<glyph unicode="&#x12f;" horiz-adv-x="643" d="M2 -328q0 86 45 171t137 157h-41v1159h357v-1159h-39q-190 -147 -191 -268q0 -72 82 -72q53 0 109 25v-195q-86 -29 -168 -29q-145 0 -218 55.5t-73 155.5zM143 1343v310h357v-310h-357z" />
<glyph unicode="&#x130;" horiz-adv-x="696" d="M164 0v1552h368v-1552h-368zM164 0zM174 1712v309h357v-309h-357z" />
<glyph unicode="&#x131;" horiz-adv-x="643" d="M143 0v1159h357v-1159h-357z" />
<glyph unicode="&#x132;" horiz-adv-x="1454" d="M164 0v1552h368v-1552h-368zM164 0zM698 -45q51 -10 111 -10q45 0 68.5 15t33.5 55t10 120v1417h369v-1429q0 -199 -35 -303.5t-121 -147.5t-250 -43q-106 1 -186 17v309z" />
<glyph unicode="&#x133;" horiz-adv-x="1286" d="M143 0v1159h357v-1159h-357zM143 0zM143 1343v310h357v-310h-357zM561 -180q53 -16 121 -17q59 0 81.5 28t22.5 95v1239h357v-1368q0 -150 -89 -229.5t-272 -79.5q-55 0 -103 7t-118 22v303zM786 1343v310h357v-310h-357z" />
<glyph unicode="&#x136;" horiz-adv-x="1519" d="M164 0v1552h368v-548l480 548h456l-632 -729l643 -823h-461l-418 553l-68 -78v-475h-368zM164 0zM501 -504l66 340h368l-98 -340h-336z" />
<glyph unicode="&#x137;" horiz-adv-x="1345" d="M143 0v1733h357v-1002l362 387h426l-461 -487l498 -631h-426l-305 387l-94 -100v-287h-357zM143 0zM434 -504l66 340h368l-98 -340h-336z" />
<glyph unicode="&#x139;" horiz-adv-x="1179" d="M159 1712l201 313h406l-248 -313h-359zM160 0zM164 0v1552h368v-1237h566v-315h-934z" />
<glyph unicode="&#x13a;" horiz-adv-x="776" d="M135 0zM135 1957l201 314h406l-248 -314h-359zM143 283v1450h357v-1321q0 -68 22.5 -95.5t81.5 -27.5q68 0 121 16v-303q-70 -14 -118 -21.5t-103 -7.5q-182 0 -271.5 80t-89.5 230z" />
<glyph unicode="&#x13b;" horiz-adv-x="1179" d="M164 0v1552h368v-1237h566v-315h-934zM164 0zM391 -504l66 340h368l-98 -340h-336z" />
<glyph unicode="&#x13c;" horiz-adv-x="776" d="M143 0zM143 283v1450h357v-1321q0 -68 22.5 -95.5t81.5 -27.5q68 0 121 16v-303q-70 -14 -118 -21.5t-103 -7.5q-182 0 -271.5 80t-89.5 230zM227 -504l66 340h368l-98 -340h-336z" />
<glyph unicode="&#x13d;" horiz-adv-x="1179" d="M164 0v1552h368v-405l101 405h356l-155 -413h-302v-824h566v-315h-934z" />
<glyph unicode="&#x13e;" horiz-adv-x="776" d="M143 0zM143 283v1450h357v-1321q0 -68 22.5 -95.5t81.5 -27.5q68 0 121 16v-303q-70 -14 -118 -21.5t-103 -7.5q-182 0 -271.5 80t-89.5 230zM561 1139l102 413h357l-156 -413h-303z" />
<glyph unicode="&#x13f;" horiz-adv-x="1179" d="M164 0v1552h368v-1237h566v-315h-934zM635 627v370h377v-370h-377z" />
<glyph unicode="&#x140;" horiz-adv-x="776" d="M143 0zM143 283v1450h357v-1321q0 -68 22.5 -95.5t81.5 -27.5q68 0 121 16v-303q-70 -14 -118 -21.5t-103 -7.5q-182 0 -271.5 80t-89.5 230zM522 537v370h377v-370h-377z" />
<glyph unicode="&#x141;" horiz-adv-x="1179" d="M0 410v311l164 65v766h368v-616l353 141v-311l-353 -141v-310h566v-315h-934v475z" />
<glyph unicode="&#x142;" horiz-adv-x="776" d="M2 629v307l141 41v756h357v-654l227 66v-307l-227 -66v-360q0 -68 22.5 -95.5t81.5 -27.5q68 0 121 16v-303q-70 -14 -118 -21.5t-103 -7.5q-182 0 -271.5 80t-89.5 230v387z" />
<glyph unicode="&#x143;" horiz-adv-x="1677" d="M164 0v1552h424l557 -954v954h368v-1552h-423l-558 954v-954h-368zM164 0zM663 1712l201 313h406l-248 -313h-359z" />
<glyph unicode="&#x144;" horiz-adv-x="1417" d="M143 0v1159h357v-92q76 59 154.5 88t168.5 29q232 0 346.5 -117t114.5 -371v-696h-356v696q0 84 -42 128t-143 44q-119 0 -243 -98v-770h-357zM143 0zM546 1343l201 314h406l-248 -314h-359z" />
<glyph unicode="&#x145;" horiz-adv-x="1677" d="M164 0v1552h424l557 -954v954h368v-1552h-423l-558 954v-954h-368zM164 0zM512 -504l66 340h368l-98 -340h-336z" />
<glyph unicode="&#x146;" horiz-adv-x="1417" d="M143 0v1159h357v-92q76 59 154.5 88t168.5 29q232 0 346.5 -117t114.5 -371v-696h-356v696q0 84 -42 128t-143 44q-119 0 -243 -98v-770h-357zM143 0zM491 -504l66 340h368l-98 -340h-336z" />
<glyph unicode="&#x147;" horiz-adv-x="1677" d="M-133 1596l102 413h357l-156 -413h-303zM0 0zM164 0v1552h424l557 -954v954h368v-1552h-423l-558 954v-954h-368z" />
<glyph unicode="&#x148;" horiz-adv-x="1417" d="M-223 1139l102 413h357l-156 -413h-303zM0 0zM143 0v1159h357v-92q76 59 154.5 88t168.5 29q232 0 346.5 -117t114.5 -371v-696h-356v696q0 84 -42 128t-143 44q-119 0 -243 -98v-770h-357z" />
<glyph unicode="&#x14a;" horiz-adv-x="1587" d="M164 0v1552h424l557 -903v903h368v-1572q0 -199 -34.5 -303.5t-120.5 -147.5t-250 -43q-106 0 -186 16v310q51 -10 110 -11q45 0 68.5 15.5t34 55.5t10.5 120v18l-613 967v-977h-368z" />
<glyph unicode="&#x14b;" horiz-adv-x="1417" d="M143 0v1159h357v-92q76 59 154.5 88t168.5 29q232 0 346.5 -117t114.5 -371v-899q0 -150 -89 -229.5t-271 -79.5q-55 0 -103.5 7t-118.5 22v303q53 -16 121 -17q59 0 82 28t23 95v770q0 84 -42 128t-143 44q-119 0 -243 -98v-770h-357z" />
<glyph unicode="&#x14c;" horiz-adv-x="1738" d="M72 0zM72 774q0 227 90 409.5t270 290t438 107.5q254 0 434.5 -107.5t271.5 -291t91 -408.5q0 -231 -91 -414.5t-270.5 -289t-435.5 -105.5q-258 0 -438 105.5t-270 289t-90 414.5zM449 774q0 -225 108.5 -361.5t312.5 -136.5q199 0 309.5 139.5t110.5 364.5 q0 141 -49 252t-144.5 174.5t-226.5 63.5q-203 0 -312 -137.5t-109 -358.5zM553 1759v221h633v-221h-633z" />
<glyph unicode="&#x14d;" horiz-adv-x="1380" d="M72 0zM72 580q0 172 70.5 311t210 220t339.5 81q199 0 338 -81t209 -220t70 -311q0 -174 -70 -313.5t-209 -220.5t-338 -81q-200 0 -339.5 81t-210 220.5t-70.5 313.5zM373 1391v221h633v-221h-633zM442 580q0 -152 63.5 -232t186.5 -80q121 0 183.5 80t62.5 232 q0 150 -62.5 229.5t-183.5 79.5q-123 0 -186.5 -80t-63.5 -229z" />
<glyph unicode="&#x150;" horiz-adv-x="1738" d="M72 0zM72 774q0 227 90 409.5t270 290t438 107.5q254 0 434.5 -107.5t271.5 -291t91 -408.5q0 -231 -91 -414.5t-270.5 -289t-435.5 -105.5q-258 0 -438 105.5t-270 289t-90 414.5zM449 774q0 -225 108.5 -361.5t312.5 -136.5q199 0 309.5 139.5t110.5 364.5 q0 141 -49 252t-144.5 174.5t-226.5 63.5q-203 0 -312 -137.5t-109 -358.5zM480 1712l200 313h365l-248 -313h-317zM940 1712l201 313h365l-248 -313h-318z" />
<glyph unicode="&#x151;" horiz-adv-x="1380" d="M72 0zM72 580q0 172 70.5 311t210 220t339.5 81q199 0 338 -81t209 -220t70 -311q0 -174 -70 -313.5t-209 -220.5t-338 -81q-200 0 -339.5 81t-210 220.5t-70.5 313.5zM299 1343l200 314h365l-248 -314h-317zM442 580q0 -152 63.5 -232t186.5 -80q121 0 183.5 80 t62.5 232q0 150 -62.5 229.5t-183.5 79.5q-123 0 -186.5 -80t-63.5 -229zM759 1343l201 314h365l-248 -314h-318z" />
<glyph unicode="&#x152;" horiz-adv-x="2269" d="M72 778q0 385 215 579.5t643 194.5h1206v-295h-657v-329h555v-295h-555v-338h667v-295h-1216q-426 0 -642 197.5t-216 580.5zM444 772q0 -240 119 -350.5t367 -110.5h180v930h-180q-252 0 -369 -111.5t-117 -357.5z" />
<glyph unicode="&#x153;" horiz-adv-x="2115" d="M72 580q0 172 68.5 311t203.5 220t328 81q147 0 259.5 -52.5t186.5 -146.5q74 96 179.5 147.5t230.5 51.5q246 0 386 -148.5t140 -433.5v-141h-733q22 -98 93 -153.5t208 -55.5q80 0 152.5 19.5t167.5 66.5l92 -274q-106 -59 -211 -83t-250 -24q-150 0 -263.5 52.5 t-187.5 148.5q-76 -96 -188.5 -148.5t-261.5 -52.5q-193 0 -329 81t-203.5 220.5t-67.5 313.5zM442 580q0 -152 63.5 -232t186.5 -80q121 0 183.5 80t62.5 232q0 150 -62.5 229.5t-183.5 79.5q-123 0 -186.5 -80t-63.5 -229zM1323 733h356q-8 86 -50 125t-122 39 q-73 0 -119.5 -37t-64.5 -127z" />
<glyph unicode="&#x154;" horiz-adv-x="1517" d="M164 0v1552h629q592 0 591 -497q0 -354 -309 -455l371 -600h-410l-331 561h-173v-561h-368zM164 0zM532 872h261q219 0 219 183q0 96 -53.5 141t-165.5 45h-261v-369zM546 1712l201 313h406l-248 -313h-359z" />
<glyph unicode="&#x155;" horiz-adv-x="923" d="M143 0v1159h357v-102q76 63 152.5 95t162.5 32h47v-316h-47q-158 0 -315 -112v-756h-357zM143 0zM296 1343l201 314h406l-248 -314h-359z" />
<glyph unicode="&#x156;" horiz-adv-x="1517" d="M164 0v1552h629q592 0 591 -497q0 -354 -309 -455l371 -600h-410l-331 561h-173v-561h-368zM164 0zM522 -504l66 340h368l-98 -340h-336zM532 872h261q219 0 219 183q0 96 -53.5 141t-165.5 45h-261v-369z" />
<glyph unicode="&#x157;" horiz-adv-x="923" d="M90 0zM90 -504l66 340h368l-98 -340h-336zM143 0v1159h357v-102q76 63 152.5 95t162.5 32h47v-316h-47q-158 0 -315 -112v-756h-357z" />
<glyph unicode="&#x158;" horiz-adv-x="1517" d="M164 0v1552h629q592 0 591 -497q0 -354 -309 -455l371 -600h-410l-331 561h-173v-561h-368zM164 0zM295 2025h344l84 -186l82 186h344l-187 -313h-481zM532 872h261q219 0 219 183q0 96 -53.5 141t-165.5 45h-261v-369z" />
<glyph unicode="&#x159;" horiz-adv-x="923" d="M51 0zM52 1657h344l84 -187l82 187h344l-187 -314h-481zM143 0v1159h357v-102q76 63 152.5 95t162.5 32h47v-316h-47q-158 0 -315 -112v-756h-357z" />
<glyph unicode="&#x15a;" horiz-adv-x="1374" d="M115 0zM115 82v332q260 -137 571 -138q121 0 177.5 41t56.5 109t-50.5 101.5t-179.5 68.5l-139 39q-123 35 -213 81t-153.5 138t-63.5 238q0 240 146.5 364.5t412.5 124.5q160 0 280.5 -28.5t247.5 -88.5v-319q-233 125 -528 125q-109 0 -152 -37t-43 -107 q0 -47 20.5 -74.5t63.5 -46t129 -42.5l142 -39q131 -37 225 -86.5t156.5 -145.5t62.5 -248q-2 -223 -160.5 -351t-437.5 -128q-164 0 -303 27.5t-268 89.5zM512 1712l201 313h406l-248 -313h-359z" />
<glyph unicode="&#x15b;" horiz-adv-x="1157" d="M92 0zM92 70v313q117 -66 235.5 -94.5t254.5 -28.5q133 0 133 80q0 33 -18.5 49.5t-59.5 26.5l-199 41q-174 35 -254 118.5t-80 229.5q0 197 122 292t370 95q102 0 214 -20.5t212 -53.5v-303q-78 37 -189.5 59.5t-218.5 22.5q-84 0 -116.5 -16.5t-32.5 -51.5 q0 -27 16.5 -38t55.5 -19l198 -41q180 -37 260 -121t80 -250q0 -199 -133 -297t-360 -98q-146 0 -257.5 23.5t-232.5 81.5zM417 1343l201 314h406l-248 -314h-359z" />
<glyph unicode="&#x15e;" horiz-adv-x="1374" d="M115 82v332q260 -137 571 -138q121 0 177.5 41t56.5 109t-50.5 101.5t-179.5 68.5l-139 39q-123 35 -213 81t-153.5 138t-63.5 238q0 240 146.5 364.5t412.5 124.5q160 0 280.5 -28.5t247.5 -88.5v-319q-233 125 -528 125q-109 0 -152 -37t-43 -107q0 -47 20.5 -74.5 t63.5 -46t129 -42.5l142 -39q131 -37 225 -86.5t156.5 -145.5t62.5 -248q-2 -204 -137 -329t-373 -146l-20 -59q104 -2 160.5 -59.5t56.5 -151.5q0 -109 -74 -173.5t-217 -64.5q-68 0 -121 8.5t-108 32.5v195q94 -43 188 -43q47 0 65.5 9t18.5 28q0 20 -21.5 29.5t-74.5 9.5 q-84 0 -152 -23l74 264q-238 18 -434 111z" />
<glyph unicode="&#x15f;" horiz-adv-x="1157" d="M92 70v313q117 -66 235.5 -94.5t254.5 -28.5q133 0 133 80q0 33 -18.5 49.5t-59.5 26.5l-199 41q-174 35 -254 118.5t-80 229.5q0 197 122 292t370 95q102 0 214 -20.5t212 -53.5v-303q-78 37 -189.5 59.5t-218.5 22.5q-84 0 -116.5 -16.5t-32.5 -51.5q0 -27 16.5 -38 t55.5 -19l198 -41q180 -37 260 -121t80 -250q0 -176 -105.5 -274t-291.5 -117l-21 -59q104 -2 160.5 -59.5t56.5 -151.5q0 -109 -73.5 -173.5t-216.5 -64.5q-68 0 -121 8.5t-109 32.5v195q94 -43 189 -43q47 0 65.5 9t18.5 28q0 20 -21.5 29.5t-75.5 9.5q-84 0 -151 -23 l74 262q-98 10 -183.5 33t-177.5 68z" />
<glyph unicode="&#x160;" horiz-adv-x="1374" d="M115 0zM115 82v332q260 -137 571 -138q121 0 177.5 41t56.5 109t-50.5 101.5t-179.5 68.5l-139 39q-123 35 -213 81t-153.5 138t-63.5 238q0 240 146.5 364.5t412.5 124.5q160 0 280.5 -28.5t247.5 -88.5v-319q-233 125 -528 125q-109 0 -152 -37t-43 -107 q0 -47 20.5 -74.5t63.5 -46t129 -42.5l142 -39q131 -37 225 -86.5t156.5 -145.5t62.5 -248q-2 -223 -160.5 -351t-437.5 -128q-164 0 -303 27.5t-268 89.5zM261 2025h344l84 -186l82 186h344l-187 -313h-481z" />
<glyph unicode="&#x161;" horiz-adv-x="1157" d="M92 0zM92 70v313q117 -66 235.5 -94.5t254.5 -28.5q133 0 133 80q0 33 -18.5 49.5t-59.5 26.5l-199 41q-174 35 -254 118.5t-80 229.5q0 197 122 292t370 95q102 0 214 -20.5t212 -53.5v-303q-78 37 -189.5 59.5t-218.5 22.5q-84 0 -116.5 -16.5t-32.5 -51.5 q0 -27 16.5 -38t55.5 -19l198 -41q180 -37 260 -121t80 -250q0 -199 -133 -297t-360 -98q-146 0 -257.5 23.5t-232.5 81.5zM172 1657h344l84 -187l82 187h344l-187 -314h-481z" />
<glyph unicode="&#x162;" horiz-adv-x="1380" d="M82 1237v315h1216v-315h-424v-1237h-75l-31 -90q104 -2 160.5 -59.5t56.5 -151.5q0 -109 -73.5 -173.5t-217.5 -64.5q-68 0 -121 8.5t-108 32.5v195q94 -43 188 -43q47 0 65.5 9t18.5 28q0 20 -21.5 29.5t-74.5 9.5q-84 0 -152 -23l82 293h-65v1237h-424z" />
<glyph unicode="&#x163;" horiz-adv-x="901" d="M61 803v315h160v389h357v-389h262v-315h-262v-391q0 -68 22.5 -95.5t81.5 -27.5q68 0 121 16v-303q-109 -23 -164 -27l-23 -65q104 -2 161 -59.5t57 -151.5q0 -109 -74 -173.5t-217 -64.5q-68 0 -121 8.5t-109 32.5v195q94 -43 189 -43q47 0 65.5 9t18.5 28 q0 20 -21.5 29.5t-75.5 9.5q-84 0 -151 -23l80 289q-197 61 -197 287v520h-160z" />
<glyph unicode="&#x164;" horiz-adv-x="1380" d="M82 0zM82 1237v315h1216v-315h-424v-1237h-368v1237h-424zM263 2025h344l84 -186l82 186h344l-187 -313h-481z" />
<glyph unicode="&#x165;" horiz-adv-x="901" d="M61 0zM61 803v315h160v389h357v-389h262v-315h-262v-391q0 -68 22.5 -95.5t81.5 -27.5q68 0 121 16v-303q-70 -14 -118 -21.5t-103 -7.5q-182 0 -271.5 80t-89.5 230v520h-160zM598 1241l102 413h357l-156 -413h-303z" />
<glyph unicode="&#x166;" horiz-adv-x="1257" d="M61 1237v315h1217v-315h-424v-324h281v-311h-281v-602h-369v602h-280v311h280v324h-424z" />
<glyph unicode="&#x167;" horiz-adv-x="901" d="M61 803v315h160v389h357v-389h262v-315h-262v-84h264v-303h-264v-4q0 -68 22.5 -95.5t81.5 -27.5q68 0 121 16v-303q-70 -14 -118 -21.5t-103 -7.5q-182 0 -271.5 80t-89.5 230v133h-158v303h158v84h-160z" />
<glyph unicode="&#x16a;" horiz-adv-x="1679" d="M164 0zM164 610v942h368v-942q0 -166 77 -250t231 -84t230.5 84t76.5 250v942h369v-942q0 -309 -168 -477t-508 -168q-338 0 -507 168t-169 477zM522 1759v221h633v-221h-633z" />
<glyph unicode="&#x16b;" horiz-adv-x="1417" d="M133 0zM133 463v696h356v-696q0 -84 42 -128t143 -44q119 0 244 98v770h356v-1159h-356v92q-76 -59 -155 -88t-169 -29q-231 0 -346 117t-115 371zM391 1391v221h633v-221h-633z" />
<glyph unicode="&#x16e;" horiz-adv-x="1679" d="M164 0zM164 610v942h368v-942q0 -166 77 -250t231 -84t230.5 84t76.5 250v942h369v-942q0 -309 -168 -477t-508 -168q-338 0 -507 168t-169 477zM588 1868q0 86 59 136t193 50q129 0 189 -50t60 -136t-60 -137.5t-189 -51.5t-190.5 51.5t-61.5 137.5zM774 1868 q0 -51 66 -51q63 0 63 51q0 49 -63 49q-66 0 -66 -49z" />
<glyph unicode="&#x16f;" horiz-adv-x="1417" d="M133 0zM133 463v696h356v-696q0 -84 42 -128t143 -44q119 0 244 98v770h356v-1159h-356v92q-76 -59 -155 -88t-169 -29q-231 0 -346 117t-115 371zM457 1499q0 86 59 136.5t193 50.5q129 0 189 -50.5t60 -136.5t-60 -137t-189 -51t-190.5 51t-61.5 137zM643 1499 q0 -51 66 -51q63 0 63 51q0 49 -63 49q-66 0 -66 -49z" />
<glyph unicode="&#x170;" horiz-adv-x="1679" d="M164 0zM164 610v942h368v-942q0 -166 77 -250t231 -84t230.5 84t76.5 250v942h369v-942q0 -309 -168 -477t-508 -168q-338 0 -507 168t-169 477zM449 1712l200 313h365l-248 -313h-317zM909 1712l201 313h365l-248 -313h-318z" />
<glyph unicode="&#x171;" horiz-adv-x="1417" d="M133 0zM133 463v696h356v-696q0 -84 42 -128t143 -44q119 0 244 98v770h356v-1159h-356v92q-76 -59 -155 -88t-169 -29q-231 0 -346 117t-115 371zM318 1343l200 314h365l-248 -314h-317zM778 1343l201 314h365l-248 -314h-318z" />
<glyph unicode="&#x172;" horiz-adv-x="1679" d="M164 610v942h368v-942q0 -166 77 -250t231 -84t230.5 84t76.5 250v942h369v-942q0 -262 -120 -423.5t-364 -204.5q-168 -139 -168 -250q0 -72 82 -72q53 0 109 25v-195q-86 -29 -168 -29q-145 0 -218 55.5t-73 155.5q0 164 145 297q-289 25 -433 191t-144 450z" />
<glyph unicode="&#x173;" horiz-adv-x="1417" d="M133 463v696h356v-696q0 -84 42 -128t143 -44q119 0 244 98v770h356v-1159q-190 -147 -191 -268q0 -72 82 -72q53 0 109 25v-195q-86 -29 -168 -29q-145 0 -218 55.5t-73 155.5q0 86 45 171t137 157h-79v92q-76 -59 -155 -88t-169 -29q-231 0 -346 117t-115 371z" />
<glyph unicode="&#x174;" horiz-adv-x="2453" d="M102 0zM102 1552h359l260 -1142l291 1142h430l293 -1142l258 1142h358l-379 -1570h-467l-278 1054l-277 -1054h-467zM799 1712l186 313h481l187 -313h-344l-82 186l-84 -186h-344z" />
<glyph unicode="&#x175;" horiz-adv-x="1970" d="M61 0zM61 1159h365l152 -729l194 729h426l195 -729l151 729h365l-293 -1177h-426l-205 675l-203 -675h-426zM557 1343l186 314h481l187 -314h-344l-82 187l-84 -187h-344z" />
<glyph unicode="&#x176;" horiz-adv-x="1501" d="M41 0zM41 1552h369l340 -624l342 624h368l-530 -952v-600h-361v600zM324 1712l186 313h481l187 -313h-344l-82 186l-84 -186h-344z" />
<glyph unicode="&#x177;" horiz-adv-x="1218" d="M41 0zM41 1159h365l202 -657l226 657h344l-461 -1341q-66 -188 -169.5 -260t-277.5 -72q-109 0 -196 31v303q61 -18 131 -19q84 0 133 30t80 116l16 47zM183 1343l186 314h481l187 -314h-344l-82 187l-84 -187h-344z" />
<glyph unicode="&#x178;" horiz-adv-x="1501" d="M41 0zM41 1552h369l340 -624l342 624h368l-530 -952v-600h-361v600zM373 1712v309h315v-309h-315zM823 1712v309h316v-309h-316z" />
<glyph unicode="&#x179;" horiz-adv-x="1511" d="M164 0v311l692 926h-666v315h1131v-311l-690 -926h758v-315h-1225zM164 0zM591 1712l201 313h406l-248 -313h-359z" />
<glyph unicode="&#x17a;" horiz-adv-x="1177" d="M133 0v311l504 537h-467v311h881v-311l-502 -537h547v-311h-963zM133 0zM419 1343l201 314h406l-248 -314h-359z" />
<glyph unicode="&#x17b;" horiz-adv-x="1511" d="M164 0v311l692 926h-666v315h1131v-311l-690 -926h758v-315h-1225zM164 0zM593 1712v309h357v-309h-357z" />
<glyph unicode="&#x17c;" horiz-adv-x="1177" d="M133 0v311l504 537h-467v311h881v-311l-502 -537h547v-311h-963zM133 0zM428 1343v310h357v-310h-357z" />
<glyph unicode="&#x17d;" horiz-adv-x="1511" d="M164 0v311l692 926h-666v315h1131v-311l-690 -926h758v-315h-1225zM164 0zM340 2025h344l84 -186l82 186h344l-187 -313h-481z" />
<glyph unicode="&#x17e;" horiz-adv-x="1177" d="M133 0v311l504 537h-467v311h881v-311l-502 -537h547v-311h-963zM133 0zM175 1657h344l84 -187l82 187h344l-187 -314h-481z" />
<glyph unicode="&#x192;" d="M195 803v315h200l25 234q16 154 64 241.5t144.5 126.5t264.5 39q63 0 123 -8v-317q-51 10 -119 10q-57 0 -87 -25.5t-36 -81.5l-22 -219h245l-61 -315h-217l-131 -1282h-357l131 1282h-167z" />
<glyph unicode="&#x2c6;" horiz-adv-x="1329" d="M238 1343l186 314h481l187 -314h-344l-82 187l-84 -187h-344z" />
<glyph unicode="&#x2da;" horiz-adv-x="1329" d="M414 1499q0 86 59 136.5t193 50.5q129 0 189 -50.5t60 -136.5t-60 -137t-189 -51t-190.5 51t-61.5 137zM600 1499q0 -51 66 -51q63 0 63 51q0 49 -63 49q-66 0 -66 -49z" />
<glyph unicode="&#x2dc;" horiz-adv-x="1329" d="M274 1341q0 175 59.5 239.5t164.5 64.5q57 0 118 -21l76 -25q61 -18 78 -18q39 0 39 64h246q0 -174 -59.5 -239t-164.5 -65q-57 0 -118 21l-76 24q-61 18 -78 19q-39 0 -39 -64h-246z" />
<glyph unicode="&#x2000;" horiz-adv-x="1135" />
<glyph unicode="&#x2001;" horiz-adv-x="2271" />
<glyph unicode="&#x2002;" horiz-adv-x="1135" />
<glyph unicode="&#x2003;" horiz-adv-x="2271" />
<glyph unicode="&#x2004;" horiz-adv-x="757" />
<glyph unicode="&#x2005;" horiz-adv-x="567" />
<glyph unicode="&#x2006;" horiz-adv-x="378" />
<glyph unicode="&#x2007;" horiz-adv-x="378" />
<glyph unicode="&#x2008;" horiz-adv-x="283" />
<glyph unicode="&#x2009;" horiz-adv-x="454" />
<glyph unicode="&#x200a;" horiz-adv-x="126" />
<glyph unicode="&#x200d;" horiz-adv-x="0" />
<glyph unicode="&#x2010;" horiz-adv-x="929" d="M164 451v311h602v-311h-602z" />
<glyph unicode="&#x2011;" horiz-adv-x="929" d="M164 451v311h602v-311h-602z" />
<glyph unicode="&#x2012;" horiz-adv-x="929" d="M164 451v311h602v-311h-602z" />
<glyph unicode="&#x2013;" horiz-adv-x="1024" d="M0 451v311h1024v-311h-1024z" />
<glyph unicode="&#x2014;" horiz-adv-x="2048" d="M256 451v311h1536v-311h-1536z" />
<glyph unicode="&#x2018;" horiz-adv-x="581" d="M55 872zM55 1552l123 -680h368l-176 680h-315z" />
<glyph unicode="&#x2019;" horiz-adv-x="581" d="M35 872zM35 873l123 680h368l-176 -680h-315z" />
<glyph unicode="&#x201a;" horiz-adv-x="581" d="M35 0zM35 -309l123 680h368l-176 -680h-315z" />
<glyph unicode="&#x201c;" horiz-adv-x="1073" d="M55 1552h316l176 -680h-369zM547 1552h315l176 -680h-368z" />
<glyph unicode="&#x201d;" horiz-adv-x="1073" d="M35 872zM35 873l123 680h368l-176 -680h-315zM527 873l123 680h368l-176 -680h-315z" />
<glyph unicode="&#x201e;" horiz-adv-x="1073" d="M35 -309l123 680h368l-176 -680h-315zM526 -309l123 680h369l-176 -680h-316z" />
<glyph unicode="&#x2020;" horiz-adv-x="950" d="M51 1026v336h244v287h360v-287h244v-336h-244v-930h-360v930h-244z" />
<glyph unicode="&#x2021;" horiz-adv-x="950" d="M51 412v336h244v278h-244v336h244v287h360v-287h244v-336h-244v-278h244v-336h-244v-779h-360v779h-244z" />
<glyph unicode="&#x2022;" horiz-adv-x="710" d="M23 780q0 92 45 168t121.5 120t166.5 44q92 0 168 -44t120 -120t44 -168q0 -90 -44 -166.5t-119.5 -122t-168.5 -45.5q-90 0 -166.5 45.5t-121.5 122t-45 166.5z" />
<glyph unicode="&#x2026;" horiz-adv-x="1744" d="M102 0v371h377v-371h-377zM684 0v371h377v-371h-377zM1266 0v371h376v-371h-376z" />
<glyph unicode="&#x202f;" horiz-adv-x="454" />
<glyph unicode="&#x2030;" horiz-adv-x="3082" d="M35 1100q0 127 54 230.5t156.5 162.5t243.5 59t244 -59t156 -162.5t53 -230.5t-53 -230.5t-155.5 -164t-244.5 -60.5q-141 0 -243.5 60.5t-156.5 164t-54 230.5zM293 1100q0 -94 52 -157.5t144 -63.5q95 0 145 63.5t50 157.5q0 96 -50 157.5t-145 61.5q-92 0 -144 -62.5 t-52 -156.5zM489 -68l854 1651h283l-854 -1651h-283zM1178 420q0 127 54 230.5t156.5 162.5t243.5 59t243.5 -59t156 -162.5t53.5 -230.5t-53.5 -230.5t-155.5 -164t-244 -60.5q-141 0 -243.5 60.5t-156.5 164t-54 230.5zM1436 420q0 -94 52 -157.5t144 -63.5 q94 0 144.5 63.5t50.5 157.5q0 96 -50.5 157.5t-144.5 61.5q-92 0 -144 -62.5t-52 -156.5zM2140 420q0 127 54.5 230.5t157 162.5t243.5 59t243.5 -59t155.5 -162.5t53 -230.5t-53 -230.5t-155.5 -164t-243.5 -60.5t-243.5 60.5t-157 164t-54.5 230.5zM2398 420 q0 -94 52.5 -157.5t144.5 -63.5q94 0 144 63.5t50 157.5q0 96 -50 157.5t-144 61.5q-92 0 -144.5 -62.5t-52.5 -156.5z" />
<glyph unicode="&#x2039;" horiz-adv-x="1003" d="M184 428v250l422 375l211 -201l-328 -299l328 -299l-211 -201z" />
<glyph unicode="&#x203a;" horiz-adv-x="1003" d="M186 53zM187 254l211 -201l422 375v250l-422 375l-211 -201l328 -299z" />
<glyph unicode="&#x2044;" horiz-adv-x="808" d="M-164 -68l854 1651h283l-854 -1651h-283z" />
<glyph unicode="&#x205f;" horiz-adv-x="567" />
<glyph unicode="&#x20ac;" d="M41 725l96 254h92q47 217 176.5 323.5t346.5 106.5q195 0 348 -102l-125 -283q-102 74 -197 74q-61 0 -104 -28t-68 -91h357l-97 -254h-299v-37v-35h275l-97 -254h-141q25 -66 69 -94.5t105 -28.5q63 0 114.5 24t123.5 75l110 -283q-82 -66 -181 -96.5t-226 -30.5 q-403 0 -490 434h-184l96 254h62v35v37h-162z" />
<glyph unicode="&#x20b9;" d="M51 799v254h506v73h-506v254h1026v-254h-205v-73h205v-254h-205v-72q0 -193 -106.5 -282t-331.5 -99q8 -96 59.5 -135t157.5 -39h307v-254h-307q-168 0 -284.5 40t-183 145.5t-66.5 295.5v322h315v-121q70 4 97.5 31.5t27.5 95.5v72h-506z" />
<glyph unicode="&#x2122;" horiz-adv-x="2334" d="M82 1278v274h782v-274h-241v-836h-299v836h-242zM999 442v1110h263l323 -442l324 442h262v-1110h-299v637l-205 -280h-164l-205 280v-637h-299z" />
<glyph unicode="&#x25ca;" d="M23 690l405 690h291l407 -690l-405 -690h-291zM391 692l184 -313l183 309l-185 313z" />
<glyph unicode="&#x25fc;" horiz-adv-x="1157" d="M0 0v1157h1157v-1157h-1157z" />
</font>
</defs>
</svg>
