<?xml version="1.0" standalone="no"?>
<!DOCTYPE svg PUBLIC "-//W3C//DTD SVG 1.1//EN" "http://www.w3.org/Graphics/SVG/1.1/DTD/svg11.dtd" >
<svg xmlns="http://www.w3.org/2000/svg">
<metadata></metadata>
<defs>
<font id="biryaniultralight" horiz-adv-x="1126" >
<font-face units-per-em="2048" ascent="1638" descent="-410" />
<missing-glyph horiz-adv-x="450" />
<glyph unicode="&#xfb01;" horiz-adv-x="1130" d="M84 0zM84 1008v110h139v393q0 143 56.5 195.5t195.5 52.5q43 0 84 -8v-111q-41 8 -94 9q-76 0 -103.5 -31t-27.5 -119v-381h225v-110h-225v-1008h-111v1008h-139zM815 0v1118h110v-1118h-110zM815 1346v309h110v-309h-110z" />
<glyph unicode="&#xfb02;" horiz-adv-x="1202" d="M84 0zM84 1008v110h139v393q0 143 56.5 195.5t195.5 52.5q43 0 84 -8v-111q-41 8 -94 9q-76 0 -103.5 -31t-27.5 -119v-381h225v-110h-225v-1008h-111v1008h-139zM815 221v1512h110v-1500q0 -88 28 -118.5t103 -30.5q53 0 95 8v-110q-41 -8 -84 -9q-140 0 -196 52.5 t-56 195.5z" />
<glyph horiz-adv-x="0" />
<glyph unicode="&#xd;" horiz-adv-x="1228" />
<glyph unicode=" "  horiz-adv-x="450" />
<glyph unicode="&#x09;" horiz-adv-x="450" />
<glyph unicode="&#xa0;" horiz-adv-x="450" />
<glyph unicode="!" horiz-adv-x="581" d="M217 1552h148l-25 -1081h-98zM225 0v309h131v-309h-131z" />
<glyph unicode="&#x22;" horiz-adv-x="909" d="M233 934v618h115v-618h-115zM233 934zM561 934v618h115v-618h-115z" />
<glyph unicode="#" horiz-adv-x="1439" d="M123 375v110h258l51 410h-248v111h262l50 374h114l-49 -374h395l50 374h114l-49 -374h244v-111h-258l-51 -410h247v-110h-262l-49 -375h-115l50 375h-396l-49 -375h-115l50 375h-244zM496 485h395l51 410h-395z" />
<glyph unicode="$" horiz-adv-x="1228" d="M121 74v114q195 -102 389 -114v567l-21 6q-158 43 -250 125t-92 252q0 174 95.5 272.5t267.5 110.5v145h115v-145q88 -6 157.5 -27.5t165.5 -66.5v-115q-84 45 -159.5 69.5t-163.5 32.5v-567l49 -14q166 -45 258 -127t92 -252q-2 -162 -107.5 -260t-291.5 -113v-164h-115 v164q-102 4 -193.5 30t-195.5 77zM266 1022q2 -111 64.5 -167t179.5 -91v536q-123 -14 -183.5 -87.5t-60.5 -190.5zM625 74q145 12 212.5 84.5t67.5 187.5q0 111 -74.5 169t-201.5 93l-4 2v-536z" />
<glyph unicode="%" horiz-adv-x="2074" d="M96 1012q0 106 52.5 194t141.5 140.5t195 52.5t194.5 -52.5t140.5 -140.5t52 -194t-52 -195.5t-140 -141.5t-195 -52q-106 0 -195 52t-141.5 141t-52.5 196zM215 1012q0 -119 76 -201t194 -82q117 0 193 82t76 201t-75 199.5t-194 80.5t-194.5 -81t-75.5 -199zM571 -68 l854 1651h119l-854 -1651h-119zM1202 354q0 106 52.5 194.5t141.5 140.5t195 52t194.5 -52t140.5 -140t52 -195q0 -106 -52 -195t-140 -141.5t-195 -52.5q-106 0 -195 52.5t-141.5 141.5t-52.5 195zM1321 354q0 -119 76 -200.5t194 -81.5q117 0 193 82t76 200q0 119 -75 200 t-194 81t-194.5 -81t-75.5 -200z" />
<glyph unicode="&#x26;" horiz-adv-x="1667" d="M137 426q0 113 47 196t112.5 138t182.5 133q-84 111 -124 190.5t-40 182.5q0 145 94.5 237t243.5 92q145 0 233.5 -84t88.5 -221q0 -180 -252 -352l-100 -68q88 -117 220 -262t261 -262q92 131 142 304t52 370h119q0 -207 -61.5 -399.5t-171.5 -341.5q211 -168 366 -168 h56v-111h-58q-193 0 -436 195q-102 -109 -226 -169.5t-259 -60.5q-158 0 -268.5 62.5t-166 168t-55.5 230.5zM256 426q0 -94 43 -175t126 -130t202 -49q116 0 220.5 49t188.5 141q-217 205 -499 549q-92 -61 -149.5 -111.5t-94.5 -118t-37 -155.5zM434 1266q0 -84 31 -159 t96 -159l117 80q90 61 134 126t44 138q0 90 -52 143.5t-151 53.5q-106 0 -162.5 -59.5t-56.5 -163.5z" />
<glyph unicode="'" horiz-adv-x="581" d="M233 934v618h115v-618h-115z" />
<glyph unicode="(" horiz-adv-x="667" d="M115 735q0 264 63.5 466t136 317.5t156.5 216.5l74 -56q-82 -111 -142.5 -214t-115 -291.5t-54.5 -438.5t54.5 -438t115 -291.5t142.5 -214.5l-74 -55q-84 100 -156.5 216t-136 317.5t-63.5 465.5z" />
<glyph unicode=")" horiz-adv-x="667" d="M123 -209q82 111 142.5 214.5t114.5 291.5t54 438t-54 438.5t-114.5 292t-142.5 213.5l74 56q84 -100 156.5 -216t136 -318t63.5 -466t-63.5 -465.5t-136 -317.5t-156.5 -216z" />
<glyph unicode="*" horiz-adv-x="1265" d="M164 1071l395 205l-395 207l55 96l377 -238l-18 445h110l-18 -445l377 238l55 -96l-395 -207l395 -205l-55 -96l-377 235l18 -442h-110l18 442l-377 -235z" />
<glyph unicode="+" d="M137 635v110h369v369l115 2v-371h368v-110h-368v-371l-115 -2v373h-369z" />
<glyph unicode="," horiz-adv-x="581" d="M158 -309l123 618h122l-135 -618h-110z" />
<glyph unicode="-" horiz-adv-x="929" d="M164 549v115h602v-115h-602z" />
<glyph unicode="." horiz-adv-x="581" d="M225 0v309h131v-309h-131z" />
<glyph unicode="/" horiz-adv-x="813" d="M31 -362l637 2269h114l-637 -2269h-114z" />
<glyph unicode="0" d="M137 688q0 354 105.5 537.5t320.5 183.5q207 0 316.5 -185.5t109.5 -535.5q0 -358 -108.5 -540.5t-317.5 -182.5q-215 0 -320.5 180.5t-105.5 542.5zM256 688q0 -311 77 -463.5t230 -152.5q148 0 227.5 157.5t79.5 468.5q0 295 -81.5 450t-225.5 155q-307 0 -307 -615z " />
<glyph unicode="1" d="M248 0v111h258v1159h-217v110h332v-1269h258v-111h-631z" />
<glyph unicode="2" d="M127 0v111q297 276 428 409t202.5 252t71.5 238q0 141 -79.5 217t-214.5 76q-188 0 -357 -84v114q174 76 357 76q182 0 297.5 -103.5t115.5 -293.5q0 -127 -64.5 -247t-161.5 -225.5t-269 -267.5q-82 -76 -168 -161h725v-111h-883z" />
<glyph unicode="3" d="M178 37v115q76 -39 169 -59.5t185 -20.5q154 0 236 80.5t82 230.5q0 145 -97.5 221t-279.5 76h-131v106h131q174 0 265 68t91 199q0 117 -77.5 183.5t-219.5 66.5q-84 0 -172 -17.5t-161 -54.5v115q154 63 333 63q193 0 304.5 -96t111.5 -260q0 -113 -57 -192t-172 -126 q123 -41 186.5 -134t63.5 -222q0 -190 -118 -302t-319 -112q-184 0 -354 72z" />
<glyph unicode="4" d="M61 328v110l664 961h115v-961h252v-110h-252v-363h-115v363h-664zM188 438h537v762z" />
<glyph unicode="5" d="M168 25v112q154 -66 324 -65q369 0 368 360q0 164 -97 252t-271 88q-145 0 -302 -61l15 669h694v-110h-582l-10 -412q92 20 185 21q231 0 359 -122t128 -325q0 -223 -130 -345t-357 -122q-174 0 -324 60z" />
<glyph unicode="6" d="M137 494q0 272 156 504.5t436 406.5l64 -84q-174 -113 -302.5 -253t-187.5 -304q121 92 270 92q129 0 226.5 -55.5t152 -155.5t54.5 -235q0 -133 -55.5 -233.5t-152 -156t-214.5 -55.5q-211 0 -329 139.5t-118 389.5zM256 494q2 -215 89 -318.5t239 -103.5q133 0 218 91 t85 247q0 158 -89 249t-225 91q-94 0 -174 -37t-135 -99q-8 -51 -8 -120z" />
<glyph unicode="7" d="M170 1270v110h864v-110l-534 -1305h-127l549 1305h-752z" />
<glyph unicode="8" d="M123 362q0 123 63.5 216.5t171.5 140.5q-88 49 -139 133t-51 186q0 104 53 189.5t143.5 133.5t198.5 48q109 0 199 -48t143 -133t53 -190q0 -102 -51 -186t-139 -133q109 -47 172.5 -140.5t63.5 -216.5q0 -119 -58.5 -209t-159 -139t-223.5 -49t-223 49t-158.5 139.5 t-58.5 208.5zM242 362q0 -133 92 -211.5t229 -78.5t229.5 78.5t92.5 211.5q0 131 -92.5 211t-229.5 80t-229 -79.5t-92 -211.5zM287 1038q0 -117 79.5 -190.5t196.5 -73.5t197 74t80 190q0 115 -81 190t-196 75q-114 0 -195 -75t-81 -190z" />
<glyph unicode="9" d="M119 965q0 133 55 233t151.5 155.5t215.5 55.5q211 0 328.5 -139.5t117.5 -388.5q0 -272 -155.5 -505t-436.5 -407l-63 84q174 113 302 253t187 304q-121 -92 -270 -92q-129 0 -226.5 55.5t-151.5 155.5t-54 236zM238 965q0 -158 89 -249t224 -91q94 0 174 36.5t135 98.5 q8 51 8 121q-2 215 -89 318.5t-238 103.5q-133 0 -218 -91.5t-85 -246.5z" />
<glyph unicode=":" horiz-adv-x="581" d="M225 0v309h131v-309h-131zM225 0zM225 809v309h131v-309h-131z" />
<glyph unicode=";" horiz-adv-x="581" d="M158 0zM158 -309l123 618h122l-135 -618h-110zM225 809v309h131v-309h-131z" />
<glyph unicode="&#x3c;" d="M137 647v86l760 451l55 -92l-682 -402l682 -401l-57 -90z" />
<glyph unicode="=" d="M137 430v111h852v-111h-852zM137 840v110h852v-110h-852z" />
<glyph unicode="&#x3e;" d="M174 199zM174 289l57 -90l758 448v86l-760 451l-55 -92l682 -402z" />
<glyph unicode="?" d="M178 1391v114q174 76 357 76q182 0 297.5 -103.5t115.5 -293.5q0 -104 -38 -176t-111 -136l-56 -49q-70 -61 -100.5 -95t-47.5 -77t-17 -104v-76h-115v76q0 88 24.5 148.5t61.5 100.5t108 103l56 49q63 57 89.5 109.5t26.5 124.5q0 141 -79.5 217t-214.5 76 q-188 0 -357 -84zM455 0v309h131v-309h-131z" />
<glyph unicode="@" horiz-adv-x="2019" d="M137 467q0 295 127 525.5t340 358.5t465 128q248 0 432.5 -96.5t282.5 -274.5t98 -418q0 -193 -59.5 -343t-167 -234t-242.5 -84q-242 0 -258 170q-125 -143 -268 -144q-141 0 -222 83t-81 245q2 180 69.5 330.5t180 236.5t247.5 86q180 0 250 -155l37 123h113l-201 -682 q-16 -59 -16 -93q0 -49 34.5 -71.5t114.5 -22.5q113 0 193 78t120.5 205t40.5 272q0 328 -184 505t-514 177q-217 0 -404.5 -114.5t-300 -321.5t-112.5 -469q0 -238 82 -417t249 -278.5t412 -99.5q141 0 268.5 38t268.5 112l41 -103q-152 -76 -285 -114.5t-293 -38.5 q-252 0 -446.5 105.5t-303 309t-108.5 486.5zM698 383q0 -119 45 -168t144 -49q82 0 156.5 51t138.5 145l121 420q-86 143 -222 144q-109 0 -194.5 -80t-135 -205t-53.5 -258z" />
<glyph unicode="A" horiz-adv-x="1411" d="M51 0l604 1571h99l606 -1571h-123l-201 520h-661l-201 -520h-123zM416 631h577l-288 749z" />
<glyph unicode="B" horiz-adv-x="1413" d="M246 0v1552h481q256 0 360.5 -100t104.5 -315q0 -250 -215 -349q276 -91 276 -374q0 -209 -120.5 -311.5t-405.5 -102.5h-481zM360 106h367q223 0 315.5 75t92.5 237q0 160 -102.5 233.5t-305.5 73.5h-367v-619zM360 831h367q174 0 260 77t86 237q0 111 -31.5 175 t-107.5 95t-207 31h-367v-615z" />
<glyph unicode="C" horiz-adv-x="1439" d="M137 774q0 229 80 411.5t244 289t407 106.5q109 0 194 -17.5t183 -58.5v-114q-170 84 -377 84q-190 0 -328.5 -89.5t-211 -246t-72.5 -359.5q0 -211 71.5 -370.5t209 -248.5t331.5 -89q115 0 225.5 31.5t233.5 89.5l41 -103q-119 -61 -250 -93t-250 -32 q-237 0 -401 101.5t-247 283.5t-83 424z" />
<glyph unicode="D" horiz-adv-x="1626" d="M246 0v1552h502q362 0 546.5 -197.5t184.5 -580.5q0 -385 -183.5 -579.5t-547.5 -194.5h-502zM360 106h388q303 0 457.5 162t154.5 512q0 342 -155.5 504t-456.5 162h-388v-1340z" />
<glyph unicode="E" horiz-adv-x="1277" d="M246 0v1552h899v-110h-785v-606h682v-111h-682v-614h795v-111h-909z" />
<glyph unicode="F" horiz-adv-x="1247" d="M246 0v1552h899v-110h-785v-627h682v-110h-682v-705h-114z" />
<glyph unicode="G" horiz-adv-x="1597" d="M137 774q0 229 80 411.5t244 289t407 106.5q135 0 228.5 -25.5t210.5 -76.5v-121q-104 57 -206 87t-233 30q-190 0 -328.5 -89.5t-211 -246t-72.5 -359.5q0 -211 71.5 -370.5t209 -248.5t331.5 -89q104 0 206 26.5t214 75.5v664h-674v110h789v-839q-121 -70 -265.5 -107 t-269.5 -37q-238 0 -401.5 101.5t-246.5 283.5t-83 424z" />
<glyph unicode="H" horiz-adv-x="1587" d="M246 0v1552h114v-716h867v716h114v-1552h-114v725h-867v-725h-114z" />
<glyph unicode="I" horiz-adv-x="606" d="M246 0v1552h114v-1552h-114z" />
<glyph unicode="J" horiz-adv-x="606" d="M23 -47q41 -8 94 -8t79.5 18.5t38 66.5t11.5 146v1376h114v-1388q0 -133 -21.5 -203t-75.5 -98.5t-157 -28.5q-42 0 -83 8v111z" />
<glyph unicode="K" horiz-adv-x="1351" d="M246 0v1552h114v-755l750 755h150l-691 -694l701 -858h-154l-633 770l-123 -123v-647h-114z" />
<glyph unicode="L" horiz-adv-x="1134" d="M246 0v1552h114v-1441h693v-111h-807z" />
<glyph unicode="M" horiz-adv-x="1855" d="M246 0v1552h114l568 -776l567 776h115v-1552h-115v1360l-534 -733h-66l-535 733v-1360h-114z" />
<glyph unicode="N" horiz-adv-x="1587" d="M246 0v1552h112l869 -1341v1341h114v-1552h-112l-869 1341v-1341h-114z" />
<glyph unicode="O" horiz-adv-x="1697" d="M137 774q0 227 81 409.5t240.5 290t391.5 107.5q227 0 388 -107.5t242 -291t81 -408.5q0 -231 -81 -414.5t-241 -289t-389 -105.5q-232 0 -392.5 105.5t-240.5 289t-80 414.5zM256 774q0 -199 68.5 -358.5t201.5 -251.5t324 -92q184 0 318.5 93t204 255t69.5 360 q0 193 -71 350.5t-205 251t-316 93.5q-188 0 -322.5 -93.5t-203 -253t-68.5 -354.5z" />
<glyph unicode="P" horiz-adv-x="1314" d="M246 0v1552h502q464 0 464 -436q0 -211 -115.5 -321.5t-348.5 -110.5h-388v-684h-114zM360 791h388q346 0 346 331q0 168 -87 246t-259 78h-388v-655z" />
<glyph unicode="Q" horiz-adv-x="1697" d="M137 774q0 227 81 409.5t240.5 290t391.5 107.5q227 0 388 -107.5t242 -291t81 -408.5q0 -203 -63.5 -370.5t-184.5 -276.5l227 -258h-151l-166 192q-158 -96 -373 -96q-231 0 -392 105.5t-241 289t-80 414.5zM256 774q0 -199 68.5 -358.5t201.5 -251.5t324 -92 q170 0 297 80l-289 333h143l232 -268q100 96 154.5 242.5t54.5 320.5q0 193 -71 350.5t-205 251t-316 93.5q-188 0 -322.5 -93.5t-203 -253t-68.5 -354.5z" />
<glyph unicode="R" horiz-adv-x="1411" d="M246 0v1552h502q464 0 464 -424q0 -369 -358 -417l440 -711h-135l-436 705h-363v-705h-114zM360 811h388q346 0 346 322q0 162 -87 237.5t-259 75.5h-388v-635z" />
<glyph unicode="S" horiz-adv-x="1288" d="M135 74v114q221 -116 505 -116h5q195 0 285 86t92 227q0 131 -85 199.5t-232 109.5l-140 39q-115 33 -196.5 78t-134 128t-52.5 214q0 209 120 318.5t337 109.5q127 0 224.5 -23.5t201.5 -72.5v-115q-199 104 -426 105q-172 0 -255 -87.5t-83 -236.5q2 -133 80 -199.5 t227 -107.5l142 -39q121 -33 204.5 -79t135 -129t51.5 -214q-2 -195 -134.5 -306.5t-361.5 -111.5q-285 0 -510 109z" />
<glyph unicode="T" horiz-adv-x="1257" d="M82 1442v110h1094v-110h-490v-1442h-115v1442h-489z" />
<glyph unicode="U" horiz-adv-x="1568" d="M236 508v1044h114v-1044q0 -215 109.5 -325.5t324.5 -110.5t325 110.5t110 325.5v1044h114v-1044q0 -260 -136 -401.5t-413 -141.5q-274 0 -411 141.5t-137 401.5z" />
<glyph unicode="V" horiz-adv-x="1452" d="M72 1552h123l532 -1380l530 1380h123l-604 -1570h-98z" />
<glyph unicode="W" horiz-adv-x="2146" d="M72 1552h123l409 -1368l408 1368h123l409 -1368l408 1368h123l-482 -1570h-98l-422 1372l-420 -1372h-98z" />
<glyph unicode="X" horiz-adv-x="1445" d="M100 0l551 799l-514 753h137l455 -671l453 671h137l-514 -753l549 -799h-140l-487 721l-487 -721h-140z" />
<glyph unicode="Y" horiz-adv-x="1439" d="M72 1552h123l524 -854l526 854h123l-592 -954v-598h-114v598z" />
<glyph unicode="Z" horiz-adv-x="1449" d="M164 0v106l919 1336h-893v110h1029v-106l-918 -1335h985v-111h-1122z" />
<glyph unicode="[" horiz-adv-x="663" d="M246 -264v1999h284v-111h-170v-1778h181v-110h-295z" />
<glyph unicode="\" horiz-adv-x="813" d="M31 1907h114l637 -2269h-114z" />
<glyph unicode="]" horiz-adv-x="663" d="M123 -154h180v1778h-170v111h285v-1999h-295v110z" />
<glyph unicode="^" d="M70 342l450 756h86l451 -760l-92 -55l-402 682l-401 -682z" />
<glyph unicode="_" horiz-adv-x="1024" d="M0 -158h1024v-110h-1024v110z" />
<glyph unicode="`" horiz-adv-x="1329" d="M373 1657h139l221 -314h-112z" />
<glyph unicode="a" horiz-adv-x="1009" d="M72 354q0 182 115.5 284.5t304.5 102.5q66 0 139.5 -17t134.5 -50q-2 121 -23.5 191.5t-84 110.5t-187.5 40h-111v102h142q157 0 239 -60.5t109 -161.5t27 -255v-641h-111v121q-82 -76 -163 -112t-173 -36q-94 0 -177 46.5t-132 132.5t-49 202zM186 354q0 -139 76 -204.5 t168 -65.5q82 0 168 37t168 115v331q-119 63 -274 64q-127 0 -216.5 -63.5t-89.5 -213.5z" />
<glyph unicode="b" horiz-adv-x="1275" d="M205 0v1733h110v-734q78 70 164 111t172 41q223 0 355.5 -151.5t132.5 -442.5q0 -289 -132.5 -440.5t-355.5 -151.5q-86 0 -172 41t-164 111v-117h-110zM315 227q161 -151 334 -151h2q185 0 279 123t94 358q0 238 -94 360.5t-279 122.5q-174 0 -336 -151v-662z" />
<glyph unicode="c" horiz-adv-x="1118" d="M137 561q0 268 137.5 428t391.5 162q86 0 148.5 -13.5t135.5 -41.5v-119q-74 35 -139.5 49t-144.5 14q-215 -2 -314.5 -133t-99.5 -344q0 -219 99.5 -352t314.5 -135q147 0 333 84l41 -103q-184 -92 -374 -92q-254 2 -391.5 164t-137.5 432z" />
<glyph unicode="d" horiz-adv-x="1275" d="M137 559q0 289 132 440.5t356 151.5q86 0 172 -41t164 -111v734h110v-1733h-110v117q-78 -70 -164 -111t-172 -41q-223 0 -355.5 151.5t-132.5 442.5zM252 559q0 -238 94 -360.5t279 -122.5h2q173 0 334 151v662q-161 151 -334 151h-2q-184 0 -278.5 -122.5t-94.5 -358.5 z" />
<glyph unicode="e" horiz-adv-x="1171" d="M137 561q0 188 64.5 321.5t175 201t248.5 67.5q207 0 324.5 -133t119.5 -383v-43h-817v-29q0 -219 99.5 -353t314.5 -134q147 0 333 84l41 -103q-180 -92 -374 -92q-254 0 -391.5 163t-137.5 433zM262 702h690q-12 174 -92 256t-235 82q-146 0 -241 -85t-122 -253z" />
<glyph unicode="f" horiz-adv-x="610" d="M84 1008v110h139v393q0 143 56.5 195.5t195.5 52.5q43 0 84 -8v-111q-41 8 -94 9q-76 0 -103.5 -31t-27.5 -119v-381h225v-110h-225v-1008h-111v1008h-139z" />
<glyph unicode="g" horiz-adv-x="1228" d="M137 580q0 279 132 425t356 146q86 0 172 -41t164 -111v119h110v-1155q0 -154 -32.5 -255t-133 -161.5t-291.5 -60.5q-111 0 -190.5 16.5t-175.5 57.5v123q178 -86 336 -86q170 0 250.5 44t103.5 121.5t23 221.5v174q-78 -70 -164 -111t-172 -41q-145 0 -255 67.5 t-171.5 197.5t-61.5 309zM252 580q0 -217 96 -340t277 -123h2q173 0 334 151v621q-161 151 -334 151h-2q-180 0 -276.5 -123.5t-96.5 -336.5z" />
<glyph unicode="h" horiz-adv-x="1253" d="M205 0v1733h110v-750q78 72 172.5 116t184.5 44q198 0 292.5 -106.5t94.5 -360.5v-676h-111v676q0 133 -25.5 210t-86 111.5t-164.5 34.5q-96 0 -187.5 -43t-169.5 -117v-872h-110z" />
<glyph unicode="i" horiz-adv-x="520" d="M205 0v1118h110v-1118h-110zM205 1346v309h110v-309h-110z" />
<glyph unicode="j" horiz-adv-x="520" d="M-20 -395q41 -8 94 -8t80.5 18t39 66.5t11.5 146.5v1290h110v-1302q0 -133 -21.5 -203t-74.5 -98.5t-156 -28.5q-42 0 -83 8v111zM205 1346v309h110v-309h-110z" />
<glyph unicode="k" horiz-adv-x="1120" d="M205 0v1733h110v-1133l514 518h148l-447 -448l529 -670h-139l-467 592l-138 -139v-453h-110z" />
<glyph unicode="l" horiz-adv-x="591" d="M205 221v1512h110v-1500q0 -88 28 -118.5t103 -30.5q53 0 95 8v-110q-41 -8 -84 -9q-140 0 -196 52.5t-56 195.5z" />
<glyph unicode="m" horiz-adv-x="1945" d="M205 0v1118h110v-135q78 72 172.5 116t184.5 44q135 0 221 -47t127 -154q80 88 185.5 144.5t209.5 56.5q199 0 293 -106.5t94 -360.5v-676h-110v676q0 133 -26 210t-86 111.5t-165 34.5q-100 0 -195.5 -51t-172.5 -137q12 -74 12 -168v-676h-111v676q0 133 -25.5 210 t-86 111.5t-164.5 34.5q-96 0 -187.5 -43t-169.5 -117v-872h-110z" />
<glyph unicode="n" horiz-adv-x="1253" d="M205 0v1118h110v-135q80 72 173.5 116t183.5 44q198 0 292.5 -106.5t94.5 -360.5v-676h-111v676q0 133 -25.5 210t-86 111.5t-164.5 34.5q-186 0 -357 -160v-872h-110z" />
<glyph unicode="o" horiz-adv-x="1329" d="M137 559q0 168 59.5 302t179.5 212t290 78t288.5 -78t178 -212t59.5 -302t-59.5 -303t-178 -213t-288.5 -78t-290 78t-179.5 213t-59.5 303zM252 559q0 -135 48 -244.5t141.5 -174t224.5 -64.5q129 0 222 64.5t141 174t48 244.5t-48 244.5t-140 173t-223 63.5 t-224.5 -63.5t-141.5 -173t-48 -244.5z" />
<glyph unicode="p" horiz-adv-x="1275" d="M205 -479v1597h110v-119q78 70 164 111t172 41q223 0 355.5 -151.5t132.5 -442.5q0 -289 -132.5 -440.5t-355.5 -151.5q-86 0 -172 41t-164 111v-596h-110zM315 227q161 -151 334 -151h2q185 0 279 123t94 358q0 238 -94 360.5t-279 122.5q-174 0 -336 -151v-662z" />
<glyph unicode="q" horiz-adv-x="1275" d="M137 559q0 289 132 440.5t356 151.5q86 0 172 -41t164 -111v119h110v-1597h-110v596q-78 -70 -164 -111t-172 -41q-223 0 -355.5 151.5t-132.5 442.5zM252 559q0 -238 94 -360.5t279 -122.5h2q173 0 334 151v662q-161 151 -334 151h-2q-184 0 -278.5 -122.5t-94.5 -358.5 z" />
<glyph unicode="r" horiz-adv-x="780" d="M205 0v1118h110v-135q78 72 172.5 116t184.5 44h47v-111h-47q-96 0 -187.5 -43t-169.5 -117v-872h-110z" />
<glyph unicode="s" horiz-adv-x="999" d="M115 49v129q182 -102 387 -102q135 0 195.5 59.5t60.5 153.5t-51.5 138t-163.5 75l-103 28q-131 37 -212 107t-81 219q0 133 89.5 214t259.5 81q98 0 171.5 -18.5t151.5 -55.5v-119q-88 41 -153.5 61.5t-169.5 20.5q-121 0 -177.5 -54t-56.5 -132q0 -92 54.5 -138 t156.5 -75l102 -29q96 -27 158 -58.5t100.5 -95t38.5 -171.5q0 -152 -101 -237t-269 -85q-113 0 -202 19.5t-185 64.5z" />
<glyph unicode="t" horiz-adv-x="694" d="M84 1008v110h139v389h111v-389h262v-110h-262v-775q0 -88 27.5 -118.5t103.5 -30.5q59 0 135 16v-110q-72 -16 -135 -17q-96 0 -148.5 25t-73 80t-20.5 155v775h-139z" />
<glyph unicode="u" horiz-adv-x="1253" d="M195 442v676h110v-676q0 -133 25.5 -209.5t86 -111.5t165.5 -35q96 0 187 43t169 117v872h111v-1118h-111v135q-78 -72 -172 -116t-184 -44q-199 0 -293 106.5t-94 360.5z" />
<glyph unicode="v" horiz-adv-x="1095" d="M41 1118h119l389 -964l387 964h119l-457 -1136h-98z" />
<glyph unicode="w" horiz-adv-x="1662" d="M41 1118h119l307 -956l305 956h119l307 -956l305 956h119l-375 -1136h-98l-318 956l-315 -956h-98z" />
<glyph unicode="x" horiz-adv-x="1146" d="M86 0l410 584l-390 534h140l329 -454l332 454h135l-399 -549l418 -569h-139l-357 494l-340 -494h-139z" />
<glyph unicode="y" horiz-adv-x="1095" d="M41 1118h119l389 -964l387 964h119l-523 -1300q-63 -160 -93.5 -218.5t-78 -86t-141.5 -27.5q-43 0 -84 8v111q41 -8 94 -8q45 0 74 20.5t51.5 64.5t63.5 146l71 178z" />
<glyph unicode="z" horiz-adv-x="1058" d="M137 0v106l627 906h-590v106h717v-106l-625 -906h670v-106h-799z" />
<glyph unicode="{" horiz-adv-x="663" d="M92 680v111h23q53 0 80.5 18t39 66.5t11.5 146.5v465q0 143 57 195.5t199 52.5q43 0 84 -9v-110q-41 8 -94 8q-76 0 -104 -30.5t-28 -118.5v-453q0 -137 -28.5 -199.5t-104.5 -87.5q76 -27 104.5 -90t28.5 -196v-453q0 -88 28 -119t104 -31q53 0 94 9v-111q-41 -8 -84 -8 q-141 0 -198.5 52t-57.5 196v465q0 98 -11.5 146t-39 66.5t-80.5 18.5h-23z" />
<glyph unicode="|" horiz-adv-x="606" d="M246 -264v1999h114v-1999h-114z" />
<glyph unicode="}" horiz-adv-x="663" d="M78 0zM78 -145v-111q41 -8 84 -8q141 0 198.5 52t57.5 196v465q0 98 11.5 146t39 66.5t80.5 18.5h23v111h-23q-53 0 -80.5 18t-39 66.5t-11.5 146.5v465q0 143 -57 195.5t-199 52.5q-43 0 -84 -9v-110q41 8 94 8q76 0 104 -30.5t28 -118.5v-453q0 -137 28.5 -199.5 t104.5 -87.5q-76 -27 -104.5 -90t-28.5 -196v-453q0 -88 -28 -119t-104 -31q-53 0 -94 9z" />
<glyph unicode="~" d="M90 678q70 84 136.5 132t156.5 48q74 0 122 -26.5t105 -77.5q43 -39 75 -58.5t73 -19.5q68 0 119 31.5t106 85.5l53 -68q-68 -76 -130 -118t-148 -42q-68 0 -114 26.5t-107 78.5q-45 41 -78 61.5t-76 20.5q-68 0 -121 -39t-117 -105z" />
<glyph unicode="&#xa2;" d="M141 561q0 252 122 409.5t347 178.5v164h115v-164q61 -2 113.5 -15.5t115.5 -37.5v-119q-121 55 -229 61v-960q129 14 279 82l40 -103q-155 -78 -319 -90v-164h-115v164q-225 20 -347 180t-122 414zM256 563q0 -203 85 -334t269 -149v956q-184 -18 -269 -146t-85 -327z " />
<glyph unicode="&#xa3;" d="M96 0v111h195v553h-133v110h133v244q0 154 37 238.5t116.5 118.5t221.5 34q129 0 206 -37v-117q-53 27 -105 35t-112 8q-104 0 -157.5 -24.5t-75 -86t-21.5 -181.5v-232h373v-110h-373v-553h627v-111h-932z" />
<glyph unicode="&#xa5;" d="M23 1380h122l418 -682l420 682h123l-424 -682h240v-110h-301v-205h301v-111h-301v-272h-115v272h-301v111h301v205h-301v110h239z" />
<glyph unicode="&#xa7;" d="M104 645q0 182 242 260q-63 39 -96 95.5t-33 138.5q0 137 93 203.5t261 66.5q102 0 177 -17.5t157 -58.5v-114q-88 43 -162.5 63.5t-171.5 20.5q-117 0 -176 -44.5t-59 -121.5q0 -80 53 -120t156 -69l102 -28q170 -47 271.5 -118t103.5 -194q-2 -102 -65.5 -168.5 t-182.5 -109.5q156 -88 156 -254q-2 -131 -104.5 -207t-278.5 -76q-184 0 -332 60v118q152 -72 332 -71q133 0 198.5 49t65.5 129q0 82 -62.5 129t-173.5 78l-102 28q-123 33 -200.5 70t-123 100.5t-45.5 161.5zM223 643q2 -59 29 -96t85 -63.5t169 -59.5l102 -29l29 -8 q127 27 196.5 83t69.5 140q0 72 -76.5 117t-212.5 82l-102 29q-10 2 -31 10q-123 -23 -189.5 -74t-68.5 -131z" />
<glyph unicode="&#xa8;" horiz-adv-x="1329" d="M410 1386v228h110v-228h-110zM809 1386v228h111v-228h-111z" />
<glyph unicode="&#xa9;" horiz-adv-x="1914" d="M137 774q0 217 110.5 402.5t299 295t411.5 109.5q219 0 407.5 -109.5t300.5 -295t112 -402.5q0 -227 -111 -412.5t-299 -291t-410 -105.5q-225 0 -413.5 105.5t-298 290t-109.5 413.5zM256 774q0 -199 94 -359.5t255 -251.5t353 -91q187 0 347.5 92t257 254t96.5 360 q0 186 -97.5 346t-259 255.5t-344.5 95.5q-190 0 -351 -95.5t-256 -256t-95 -349.5zM547 774q0 201 104.5 328t306.5 127q63 0 111.5 -9.5t101.5 -31.5v-115q-92 49 -213 49q-135 0 -213.5 -96t-78.5 -246q0 -168 75.5 -261t216.5 -93q61 0 119 14.5t123 42.5l41 -94 q-68 -35 -141.5 -53.5t-141.5 -18.5q-133 0 -225 60.5t-139 165t-47 231.5z" />
<glyph unicode="&#xab;" horiz-adv-x="1507" d="M246 510v86l422 436l80 -78l-390 -401l390 -401l-80 -78zM750 74zM750 510v86l422 436l80 -78l-390 -401l390 -401l-80 -78z" />
<glyph unicode="&#xad;" horiz-adv-x="929" d="M164 549v115h602v-115h-602z" />
<glyph unicode="&#xae;" horiz-adv-x="1476" d="M145 989q0 156 80 291t216.5 215t297.5 80q160 0 296 -80t216 -215t80 -291q0 -166 -80 -300t-216 -211t-296 -77q-164 0 -300 76t-215 211t-79 301zM246 989q0 -139 66.5 -251.5t179 -176t247.5 -63.5q131 0 244 64.5t180.5 178t67.5 252.5q0 129 -68.5 241 t-181.5 178.5t-242 66.5q-133 0 -246.5 -66.5t-180 -179.5t-66.5 -244zM543 692v594h219q106 0 156.5 -44t50.5 -142q0 -145 -115 -178l143 -230h-110l-131 217h-117v-217h-96zM639 997h125q59 0 81.5 21.5t22.5 81.5q0 55 -22.5 76.5t-81.5 21.5h-125v-201z" />
<glyph unicode="&#xb0;" horiz-adv-x="968" d="M96 1022q0 106 52.5 194.5t141.5 140.5t195 52t194.5 -52t140.5 -140.5t52 -194.5t-52 -195.5t-140 -141.5t-195 -52q-106 0 -195 52t-141.5 141t-52.5 196zM215 1022q0 -119 76 -201t194 -82q117 0 193 82t76 201t-75 200t-194 81t-194.5 -81t-75.5 -200z" />
<glyph unicode="&#xb4;" horiz-adv-x="1329" d="M600 1343l221 314h140l-248 -314h-113z" />
<glyph unicode="&#xb6;" horiz-adv-x="1314" d="M102 1116q0 436 465 436h502v-1757h-115v1651h-213v-1651h-114v889h-60q-233 0 -349 110.5t-116 321.5z" />
<glyph unicode="&#xb7;" horiz-adv-x="581" d="M225 537v309h131v-309h-131z" />
<glyph unicode="&#xb8;" horiz-adv-x="1329" d="M494 -399q94 -43 188 -43q74 0 109.5 30.5t35.5 73.5q0 94 -118 94q-70 0 -174 -35l86 281h104l-47 -152q10 2 31 3q106 0 164.5 -52.5t58.5 -138.5q0 -90 -65.5 -145.5t-184.5 -55.5q-98 0 -188 41v99z" />
<glyph unicode="&#xbb;" horiz-adv-x="1507" d="M256 74zM256 152l80 -78l422 436v86l-422 436l-80 -78l390 -401zM759 152l80 -78l422 436v86l-422 436l-80 -78l390 -401z" />
<glyph unicode="&#xd3;" horiz-adv-x="1697" d="M137 0zM137 774q0 227 81 409.5t240.5 290t391.5 107.5q227 0 388 -107.5t242 -291t81 -408.5q0 -231 -81 -414.5t-241 -289t-389 -105.5q-232 0 -392.5 105.5t-240.5 289t-80 414.5zM256 774q0 -199 68.5 -358.5t201.5 -251.5t324 -92q184 0 318.5 93t204 255t69.5 360 q0 193 -71 350.5t-205 251t-316 93.5q-188 0 -322.5 -93.5t-203 -253t-68.5 -354.5zM784 1712l222 313h139l-248 -313h-113z" />
<glyph unicode="&#xf3;" horiz-adv-x="1329" d="M137 0zM137 559q0 168 59.5 302t179.5 212t290 78t288.5 -78t178 -212t59.5 -302t-59.5 -303t-178 -213t-288.5 -78t-290 78t-179.5 213t-59.5 303zM252 559q0 -135 48 -244.5t141.5 -174t224.5 -64.5q129 0 222 64.5t141 174t48 244.5t-48 244.5t-140 173t-223 63.5 t-224.5 -63.5t-141.5 -173t-48 -244.5zM598 1343l221 314h140l-248 -314h-113z" />
<glyph unicode="&#x100;" horiz-adv-x="1411" d="M51 0l604 1571h99l606 -1571h-123l-201 520h-661l-201 -520h-123zM51 0zM387 1821v98h633v-98h-633zM416 631h577l-288 749z" />
<glyph unicode="&#x101;" horiz-adv-x="1009" d="M72 0zM72 354q0 182 115.5 284.5t304.5 102.5q66 0 139.5 -17t134.5 -50q-2 121 -23.5 191.5t-84 110.5t-187.5 40h-111v102h142q157 0 239 -60.5t109 -161.5t27 -255v-641h-111v121q-82 -76 -163 -112t-173 -36q-94 0 -177 46.5t-132 132.5t-49 202zM186 354 q0 -139 76 -204.5t168 -65.5q82 0 168 37t168 115v331q-119 63 -274 64q-127 0 -216.5 -63.5t-89.5 -213.5zM223 1452v98h633v-98h-633z" />
<glyph unicode="&#x102;" horiz-adv-x="1411" d="M51 0l604 1571h99l606 -1571h-123l-201 520h-661l-201 -520h-123zM51 0zM398 2009v12h102v-12q0 -100 49 -147t156 -47q106 0 155.5 47t49.5 147v12h102v-12q6 -141 -79 -217t-228 -76q-141 0 -224 76t-83 217zM416 631h577l-288 749z" />
<glyph unicode="&#x103;" horiz-adv-x="1009" d="M72 0zM72 354q0 182 115.5 284.5t304.5 102.5q66 0 139.5 -17t134.5 -50q-2 121 -23.5 191.5t-84 110.5t-187.5 40h-111v102h142q157 0 239 -60.5t109 -161.5t27 -255v-641h-111v121q-82 -76 -163 -112t-173 -36q-94 0 -177 46.5t-132 132.5t-49 202zM186 354 q0 -139 76 -204.5t168 -65.5q82 0 168 37t168 115v331q-119 63 -274 64q-127 0 -216.5 -63.5t-89.5 -213.5zM235 1640v13h103v-13q0 -100 49 -147t156 -47q106 0 155 47t49 147v13h103v-13q6 -141 -79 -216.5t-228 -75.5q-142 0 -225 75.5t-83 216.5z" />
<glyph unicode="&#x104;" horiz-adv-x="1411" d="M51 0l604 1571h99l606 -1571h-123l-201 520h-661l-201 -520h-123zM51 0zM416 631h577l-288 749zM1044 -287q0 76 48 143.5t145 143.5h122q-104 -82 -157 -144.5t-53 -131.5q0 -37 25.5 -60.5t78.5 -23.5q59 0 106 24v-98q-51 -23 -106 -23q-102 0 -155.5 46t-53.5 124z " />
<glyph unicode="&#x105;" horiz-adv-x="1009" d="M72 354q0 182 115.5 284.5t304.5 102.5q66 0 139.5 -17t134.5 -50q-2 121 -23.5 191.5t-84 110.5t-187.5 40h-111v102h142q157 0 239 -60.5t109 -161.5t27 -255v-641q-102 -82 -154.5 -144.5t-52.5 -131.5q0 -37 24.5 -60.5t75.5 -23.5q59 0 107 24v-98q-51 -23 -107 -23 q-100 0 -152.5 46t-52.5 124q0 76 50.5 143.5t150.5 143.5v121q-82 -76 -163 -112t-173 -36q-94 0 -177 46.5t-132 132.5t-49 202zM186 354q0 -139 76 -204.5t168 -65.5q82 0 168 37t168 115v331q-119 63 -274 64q-127 0 -216.5 -63.5t-89.5 -213.5z" />
<glyph unicode="&#x106;" horiz-adv-x="1439" d="M137 0zM137 774q0 229 80 411.5t244 289t407 106.5q109 0 194 -17.5t183 -58.5v-114q-170 84 -377 84q-190 0 -328.5 -89.5t-211 -246t-72.5 -359.5q0 -211 71.5 -370.5t209 -248.5t331.5 -89q115 0 225.5 31.5t233.5 89.5l41 -103q-119 -61 -250 -93t-250 -32 q-237 0 -401 101.5t-247 283.5t-83 424zM721 1712l222 313h139l-248 -313h-113z" />
<glyph unicode="&#x107;" horiz-adv-x="1118" d="M137 0zM137 561q0 268 137.5 428t391.5 162q86 0 148.5 -13.5t135.5 -41.5v-119q-74 35 -139.5 49t-144.5 14q-215 -2 -314.5 -133t-99.5 -344q0 -219 99.5 -352t314.5 -135q147 0 333 84l41 -103q-184 -92 -374 -92q-254 2 -391.5 164t-137.5 432zM559 1343l221 314h140 l-248 -314h-113z" />
<glyph unicode="&#x10a;" horiz-adv-x="1439" d="M137 0zM137 774q0 229 80 411.5t244 289t407 106.5q109 0 194 -17.5t183 -58.5v-114q-170 84 -377 84q-190 0 -328.5 -89.5t-211 -246t-72.5 -359.5q0 -211 71.5 -370.5t209 -248.5t331.5 -89q115 0 225.5 31.5t233.5 89.5l41 -103q-119 -61 -250 -93t-250 -32 q-237 0 -401 101.5t-247 283.5t-83 424zM732 1755v227h110v-227h-110z" />
<glyph unicode="&#x10b;" horiz-adv-x="1118" d="M137 0zM137 561q0 268 137.5 428t391.5 162q86 0 148.5 -13.5t135.5 -41.5v-119q-74 35 -139.5 49t-144.5 14q-215 -2 -314.5 -133t-99.5 -344q0 -219 99.5 -352t314.5 -135q147 0 333 84l41 -103q-184 -92 -374 -92q-254 2 -391.5 164t-137.5 432zM571 1386v228h111 v-228h-111z" />
<glyph unicode="&#x10c;" horiz-adv-x="1439" d="M137 0zM137 774q0 229 80 411.5t244 289t407 106.5q109 0 194 -17.5t183 -58.5v-114q-170 84 -377 84q-190 0 -328.5 -89.5t-211 -246t-72.5 -359.5q0 -211 71.5 -370.5t209 -248.5t331.5 -89q115 0 225.5 31.5t233.5 89.5l41 -103q-119 -61 -250 -93t-250 -32 q-237 0 -401 101.5t-247 283.5t-83 424zM482 2025h139l166 -233l164 233h139l-248 -313h-112z" />
<glyph unicode="&#x10d;" horiz-adv-x="1118" d="M137 0zM137 561q0 268 137.5 428t391.5 162q86 0 148.5 -13.5t135.5 -41.5v-119q-74 35 -139.5 49t-144.5 14q-215 -2 -314.5 -133t-99.5 -344q0 -219 99.5 -352t314.5 -135q147 0 333 84l41 -103q-184 -92 -374 -92q-254 2 -391.5 164t-137.5 432zM319 1657h140 l166 -234l163 234h140l-248 -314h-113z" />
<glyph unicode="&#x10e;" horiz-adv-x="1626" d="M246 0v1552h502q362 0 546.5 -197.5t184.5 -580.5q0 -385 -183.5 -579.5t-547.5 -194.5h-502zM246 0zM360 106h388q303 0 457.5 162t154.5 512q0 342 -155.5 504t-456.5 162h-388v-1340zM443 2025h139l166 -233l164 233h139l-248 -313h-112z" />
<glyph unicode="&#x10f;" horiz-adv-x="1275" d="M137 0zM137 559q0 289 132 440.5t356 151.5q86 0 172 -41t164 -111v734h110v-1733h-110v117q-78 -70 -164 -111t-172 -41q-223 0 -355.5 151.5t-132.5 442.5zM252 559q0 -238 94 -360.5t279 -122.5q174 -1 336 151v662q-162 152 -336 151q-184 0 -278.5 -122.5 t-94.5 -358.5zM1198 1119l103 413h110l-114 -413h-99z" />
<glyph unicode="&#x110;" horiz-adv-x="1626" d="M55 0zM55 727v107h191v718h502q362 0 546.5 -197.5t184.5 -580.5q0 -385 -183.5 -579.5t-547.5 -194.5h-502v727h-191zM360 106h388q303 0 457.5 162t154.5 512q0 342 -155.5 504t-456.5 162h-388v-612h422v-107h-422v-621z" />
<glyph unicode="&#x111;" horiz-adv-x="1275" d="M137 559q0 289 132 440.5t356 151.5q86 0 172 -41t164 -111v365h-377v98h377v271h110v-271h129v-98h-129v-1364h-110v117q-78 -70 -164 -111t-172 -41q-223 0 -355.5 151.5t-132.5 442.5zM252 559q0 -238 94 -360.5t279 -122.5q174 -1 336 151v662q-162 152 -336 151 q-184 0 -278.5 -122.5t-94.5 -358.5z" />
<glyph unicode="&#x112;" horiz-adv-x="1277" d="M246 0v1552h899v-110h-785v-606h682v-111h-682v-614h795v-111h-909zM246 0zM393 1821v98h633v-98h-633z" />
<glyph unicode="&#x113;" horiz-adv-x="1171" d="M137 0zM137 561q0 188 64.5 321.5t175 201t248.5 67.5q207 0 324.5 -133t119.5 -383v-43h-817v-29q0 -219 99.5 -353t314.5 -134q147 0 333 84l41 -103q-180 -92 -374 -92q-254 0 -391.5 163t-137.5 433zM262 702h690q-12 174 -92 256t-235 82q-146 0 -241 -85t-122 -253 zM305 1452v98h633v-98h-633z" />
<glyph unicode="&#x116;" horiz-adv-x="1277" d="M246 0v1552h899v-110h-785v-606h682v-111h-682v-614h795v-111h-909zM246 0zM635 1755v227h110v-227h-110z" />
<glyph unicode="&#x117;" horiz-adv-x="1171" d="M137 0zM137 561q0 188 64.5 321.5t175 201t248.5 67.5q207 0 324.5 -133t119.5 -383v-43h-817v-29q0 -219 99.5 -353t314.5 -134q147 0 333 84l41 -103q-180 -92 -374 -92q-254 0 -391.5 163t-137.5 433zM262 702h690q-12 174 -92 256t-235 82q-146 0 -241 -85t-122 -253 zM569 1386v228h111v-228h-111z" />
<glyph unicode="&#x118;" horiz-adv-x="1277" d="M246 0v1552h899v-110h-785v-606h682v-111h-682v-614h795v-111h-909zM246 0zM840 -287q0 76 48 143.5t145 143.5h122q-104 -82 -157 -144.5t-53 -131.5q0 -37 25.5 -60.5t78.5 -23.5q59 0 106 24v-98q-51 -23 -106 -23q-102 0 -155.5 46t-53.5 124z" />
<glyph unicode="&#x119;" horiz-adv-x="1171" d="M137 561q0 188 64.5 321.5t175 201t248.5 67.5q207 0 324.5 -133t119.5 -383v-43h-817v-29q0 -219 99.5 -353t314.5 -134q147 0 333 84l41 -103q-139 -100 -209.5 -175t-70.5 -158q0 -37 25.5 -60.5t78.5 -23.5q59 0 107 24v-98q-51 -23 -107 -23q-102 0 -155.5 46 t-53.5 124q0 72 39 135.5t119 131.5q-70 -14 -147 -15q-254 0 -391.5 163t-137.5 433zM262 702h690q-12 174 -92 256t-235 82q-146 0 -241 -85t-122 -253z" />
<glyph unicode="&#x11a;" horiz-adv-x="1277" d="M246 0v1552h899v-110h-785v-606h682v-111h-682v-614h795v-111h-909zM246 0zM385 2025h139l166 -233l164 233h139l-248 -313h-112z" />
<glyph unicode="&#x11b;" horiz-adv-x="1171" d="M137 0zM137 561q0 188 64.5 321.5t175 201t248.5 67.5q207 0 324.5 -133t119.5 -383v-43h-817v-29q0 -219 99.5 -353t314.5 -134q147 0 333 84l41 -103q-180 -92 -374 -92q-254 0 -391.5 163t-137.5 433zM262 702h690q-12 174 -92 256t-235 82q-146 0 -241 -85t-122 -253 zM317 1657h140l166 -234l163 234h140l-248 -314h-113z" />
<glyph unicode="&#x11e;" horiz-adv-x="1597" d="M137 0zM137 774q0 229 80 411.5t244 289t407 106.5q135 0 228.5 -25.5t210.5 -76.5v-121q-104 57 -206 87t-233 30q-190 0 -328.5 -89.5t-211 -246t-72.5 -359.5q0 -211 71.5 -370.5t209 -248.5t331.5 -89q104 0 206 26.5t214 75.5v664h-674v110h789v-839 q-121 -70 -265.5 -107t-269.5 -37q-238 0 -401.5 101.5t-246.5 283.5t-83 424zM531 2009v12h102v-12q0 -100 49 -147t156 -47q106 0 155.5 47t49.5 147v12h102v-12q6 -141 -79 -217t-228 -76q-141 0 -224 76t-83 217z" />
<glyph unicode="&#x11f;" horiz-adv-x="1228" d="M137 0zM137 580q0 279 132 425t356 146q86 0 172 -41t164 -111v119h110v-1155q0 -154 -32.5 -255t-133 -161.5t-291.5 -60.5q-111 0 -190.5 16.5t-175.5 57.5v123q178 -86 336 -86q170 0 250.5 44t103.5 121.5t23 221.5v174q-78 -70 -164 -111t-172 -41q-145 0 -255 67.5 t-171.5 197.5t-61.5 309zM252 580q0 -217 96 -340t277 -123q174 -1 336 151v621q-162 152 -336 151q-180 0 -276.5 -123.5t-96.5 -336.5zM317 1640v13h103v-13q0 -100 49 -147t156 -47q106 0 155 47t49 147v13h103v-13q6 -141 -79 -216.5t-228 -75.5q-142 0 -225 75.5 t-83 216.5z" />
<glyph unicode="&#x120;" horiz-adv-x="1597" d="M137 0zM137 774q0 229 80 411.5t244 289t407 106.5q135 0 228.5 -25.5t210.5 -76.5v-121q-104 57 -206 87t-233 30q-190 0 -328.5 -89.5t-211 -246t-72.5 -359.5q0 -211 71.5 -370.5t209 -248.5t331.5 -89q104 0 206 26.5t214 75.5v664h-674v110h789v-839 q-121 -70 -265.5 -107t-269.5 -37q-238 0 -401.5 101.5t-246.5 283.5t-83 424zM783 1755v227h110v-227h-110z" />
<glyph unicode="&#x121;" horiz-adv-x="1228" d="M137 0zM137 580q0 279 132 425t356 146q86 0 172 -41t164 -111v119h110v-1155q0 -154 -32.5 -255t-133 -161.5t-291.5 -60.5q-111 0 -190.5 16.5t-175.5 57.5v123q178 -86 336 -86q170 0 250.5 44t103.5 121.5t23 221.5v174q-78 -70 -164 -111t-172 -41q-145 0 -255 67.5 t-171.5 197.5t-61.5 309zM252 580q0 -217 96 -340t277 -123q174 -1 336 151v621q-162 152 -336 151q-180 0 -276.5 -123.5t-96.5 -336.5zM569 1386v228h111v-228h-111z" />
<glyph unicode="&#x122;" horiz-adv-x="1597" d="M137 0zM137 774q0 229 80 411.5t244 289t407 106.5q135 0 228.5 -25.5t210.5 -76.5v-121q-104 57 -206 87t-233 30q-190 0 -328.5 -89.5t-211 -246t-72.5 -359.5q0 -211 71.5 -370.5t209 -248.5t331.5 -89q104 0 206 26.5t214 75.5v664h-674v110h789v-839 q-121 -70 -265.5 -107t-269.5 -37q-238 0 -401.5 101.5t-246.5 283.5t-83 424zM729 -504l66 340h123l-78 -340h-111z" />
<glyph unicode="&#x123;" horiz-adv-x="1228" d="M137 0zM137 580q0 279 132 425t356 146q86 0 172 -41t164 -111v119h110v-1155q0 -154 -32.5 -255t-133 -161.5t-291.5 -60.5q-111 0 -190.5 16.5t-175.5 57.5v123q178 -86 336 -86q170 0 250.5 44t103.5 121.5t23 221.5v174q-78 -70 -164 -111t-172 -41q-145 0 -255 67.5 t-171.5 197.5t-61.5 309zM252 580q0 -217 96 -340t277 -123q174 -1 336 151v621q-162 152 -336 151q-180 0 -276.5 -123.5t-96.5 -336.5zM561 1386l78 340h110l-65 -340h-123z" />
<glyph unicode="&#x126;" horiz-adv-x="1587" d="M246 0v1552h114v-307h867v307h114v-1552h-114v725h-867v-725h-114zM360 836h867v303h-867v-303z" />
<glyph unicode="&#x127;" horiz-adv-x="1253" d="M76 1364v98h129v271h110v-271h377v-98h-377v-381q78 72 172.5 116t184.5 44q198 0 292.5 -106.5t94.5 -360.5v-676h-111v676q0 133 -25.5 210t-86 111.5t-164.5 34.5q-96 0 -187.5 -43t-169.5 -117v-872h-110v1364h-129z" />
<glyph unicode="&#x12a;" horiz-adv-x="606" d="M-15 1821v98h633v-98h-633zM0 0zM246 0v1552h114v-1552h-114z" />
<glyph unicode="&#x12b;" horiz-adv-x="520" d="M-60 1452v98h633v-98h-633zM0 0zM205 0v1118h110v-1118h-110z" />
<glyph unicode="&#x12e;" horiz-adv-x="606" d="M45 -287q0 76 50 143.5t151 143.5v1552h114v-1552q-104 -82 -157 -144.5t-53 -131.5q0 -37 25.5 -60.5t78.5 -23.5q59 0 106 24v-98q-51 -23 -106 -23q-102 0 -155.5 46t-53.5 124z" />
<glyph unicode="&#x12f;" horiz-adv-x="520" d="M4 -287q0 76 50 143.5t151 143.5v1118h110v-1118q-102 -82 -154 -144.5t-52 -131.5q0 -37 24.5 -60.5t75.5 -23.5q59 0 106 24v-98q-51 -23 -106 -23q-100 0 -152.5 46t-52.5 124zM205 1346v309h110v-309h-110z" />
<glyph unicode="&#x130;" horiz-adv-x="606" d="M246 0v1552h114v-1552h-114zM246 0zM248 1755v227h110v-227h-110z" />
<glyph unicode="&#x131;" horiz-adv-x="520" d="M205 0v1118h110v-1118h-110z" />
<glyph unicode="&#x132;" horiz-adv-x="1212" d="M246 0v1552h114v-1552h-114zM246 0zM629 -47q41 -8 94 -8t79.5 18.5t38 66.5t11.5 146v1376h114v-1388q0 -133 -21.5 -203t-75.5 -98.5t-157 -28.5q-42 0 -83 8v111z" />
<glyph unicode="&#x133;" horiz-adv-x="1040" d="M205 0v1118h110v-1118h-110zM205 0zM205 1346v309h110v-309h-110zM500 -395q41 -8 94 -8t80.5 18t39 66.5t11.5 146.5v1290h110v-1302q0 -133 -21.5 -203t-74.5 -98.5t-156 -28.5q-42 0 -83 8v111zM725 1346v309h110v-309h-110z" />
<glyph unicode="&#x136;" horiz-adv-x="1351" d="M246 0v1552h114v-755l750 755h150l-691 -694l701 -858h-154l-633 770l-123 -123v-647h-114zM246 0zM526 -504l66 340h123l-78 -340h-111z" />
<glyph unicode="&#x137;" horiz-adv-x="1120" d="M205 0v1733h110v-1133l514 518h148l-447 -448l529 -670h-139l-467 592l-138 -139v-453h-110zM205 0zM440 -504l66 340h123l-78 -340h-111z" />
<glyph unicode="&#x139;" horiz-adv-x="1134" d="M237 1712l222 313h139l-248 -313h-113zM238 0zM246 0v1552h114v-1441h693v-111h-807z" />
<glyph unicode="&#x13a;" horiz-adv-x="591" d="M192 1957l221 314h140l-248 -314h-113zM193 0zM205 221v1512h110v-1500q0 -88 28 -118.5t103 -30.5q53 0 95 8v-110q-41 -8 -84 -9q-140 0 -196 52.5t-56 195.5z" />
<glyph unicode="&#x13b;" horiz-adv-x="1134" d="M246 0v1552h114v-1441h693v-111h-807zM246 0zM504 -504l66 340h123l-78 -340h-111z" />
<glyph unicode="&#x13c;" horiz-adv-x="591" d="M205 0zM205 221v1512h110v-1500q0 -88 28 -118.5t103 -30.5q53 0 95 8v-110q-41 -8 -84 -9q-140 0 -196 52.5t-56 195.5zM264 -504l66 340h123l-78 -340h-111z" />
<glyph unicode="&#x13d;" horiz-adv-x="1134" d="M246 0v1552h114v-1441h693v-111h-807zM246 0zM592 1139l103 413h110l-114 -413h-99z" />
<glyph unicode="&#x13e;" horiz-adv-x="591" d="M205 0zM205 221v1512h110v-1500q0 -88 28 -118.5t103 -30.5q53 0 95 8v-110q-41 -8 -84 -9q-140 0 -196 52.5t-56 195.5zM489 1139l103 413h110l-114 -413h-99z" />
<glyph unicode="&#x13f;" horiz-adv-x="1134" d="M246 0v1552h114v-1441h693v-111h-807zM246 0zM757 627v309h131v-309h-131z" />
<glyph unicode="&#x140;" horiz-adv-x="591" d="M205 0zM205 221v1512h110v-1500q0 -88 28 -118.5t103 -30.5q53 0 95 8v-110q-41 -8 -84 -9q-140 0 -196 52.5t-56 195.5zM461 537v309h131v-309h-131z" />
<glyph unicode="&#x141;" horiz-adv-x="1134" d="M31 512v106l215 87v847h114v-800l555 223v-107l-555 -223v-534h693v-111h-807v598z" />
<glyph unicode="&#x142;" horiz-adv-x="591" d="M23 731v103l182 71v828h110v-783l217 86v-102l-217 -86v-615q0 -88 28 -118.5t103 -30.5q54 0 95 8v-110q-41 -8 -84 -9q-139 0 -195.5 52.5t-56.5 195.5v582z" />
<glyph unicode="&#x143;" horiz-adv-x="1587" d="M246 0v1552h112l869 -1341v1341h114v-1552h-112l-869 1341v-1341h-114zM246 0zM759 1712l222 313h139l-248 -313h-113z" />
<glyph unicode="&#x144;" horiz-adv-x="1253" d="M205 0v1118h110v-135q80 72 173.5 116t183.5 44q198 0 292.5 -106.5t94.5 -360.5v-676h-111v676q0 133 -25.5 210t-86 111.5t-164.5 34.5q-186 0 -357 -160v-872h-110zM205 0zM563 1343l221 314h140l-248 -314h-113z" />
<glyph unicode="&#x145;" horiz-adv-x="1587" d="M246 0v1552h112l869 -1341v1341h114v-1552h-112l-869 1341v-1341h-114zM246 0zM610 -504l66 340h123l-78 -340h-111z" />
<glyph unicode="&#x146;" horiz-adv-x="1253" d="M205 0v1118h110v-135q80 72 173.5 116t183.5 44q198 0 292.5 -106.5t94.5 -360.5v-676h-111v676q0 133 -25.5 210t-86 111.5t-164.5 34.5q-186 0 -357 -160v-872h-110zM205 0zM502 -504l66 340h123l-78 -340h-111z" />
<glyph unicode="&#x147;" horiz-adv-x="1587" d="M-86 1590l103 413h110l-114 -413h-99zM0 0zM246 0v1552h112l869 -1341v1341h114v-1552h-112l-869 1341v-1341h-114z" />
<glyph unicode="&#x148;" horiz-adv-x="1253" d="M-78 1139l103 413h110l-114 -413h-99zM0 0zM205 0v1118h110v-135q80 72 173.5 116t183.5 44q198 0 292.5 -106.5t94.5 -360.5v-676h-111v676q0 133 -25.5 210t-86 111.5t-164.5 34.5q-186 0 -357 -160v-872h-110z" />
<glyph unicode="&#x14a;" horiz-adv-x="1587" d="M246 0v1552h112l869 -1341v1341h114v-1562q0 -133 -21.5 -203t-75.5 -98.5t-157 -28.5q-43 0 -83 8v111q41 -8 94 -8t79.5 18t38 66.5t11.5 146.5v2l-867 1337v-1341h-114z" />
<glyph unicode="&#x14b;" horiz-adv-x="1228" d="M205 0v1118h110v-135q80 72 173.5 116t183.5 44q198 0 292.5 -106.5t94.5 -360.5v-860q0 -133 -21.5 -203t-75 -98.5t-155.5 -28.5q-43 0 -84 8v111q41 -8 94 -8t81 18t39 66.5t11 146.5v848q0 133 -25.5 210t-86 111.5t-164.5 34.5q-186 0 -357 -160v-872h-110z" />
<glyph unicode="&#x14c;" horiz-adv-x="1697" d="M137 0zM137 774q0 227 81 409.5t240.5 290t391.5 107.5q227 0 388 -107.5t242 -291t81 -408.5q0 -231 -81 -414.5t-241 -289t-389 -105.5q-232 0 -392.5 105.5t-240.5 289t-80 414.5zM256 774q0 -199 68.5 -358.5t201.5 -251.5t324 -92q184 0 318.5 93t204 255t69.5 360 q0 193 -71 350.5t-205 251t-316 93.5q-188 0 -322.5 -93.5t-203 -253t-68.5 -354.5zM532 1821v98h633v-98h-633z" />
<glyph unicode="&#x14d;" horiz-adv-x="1329" d="M137 0zM137 559q0 168 59.5 302t179.5 212t290 78t288.5 -78t178 -212t59.5 -302t-59.5 -303t-178 -213t-288.5 -78t-290 78t-179.5 213t-59.5 303zM252 559q0 -135 48 -244.5t141.5 -174t224.5 -64.5q129 0 222 64.5t141 174t48 244.5t-48 244.5t-140 173t-223 63.5 t-224.5 -63.5t-141.5 -173t-48 -244.5zM346 1452v98h633v-98h-633z" />
<glyph unicode="&#x150;" horiz-adv-x="1697" d="M137 0zM137 774q0 227 81 409.5t240.5 290t391.5 107.5q227 0 388 -107.5t242 -291t81 -408.5q0 -231 -81 -414.5t-241 -289t-389 -105.5q-232 0 -392.5 105.5t-240.5 289t-80 414.5zM256 774q0 -199 68.5 -358.5t201.5 -251.5t324 -92q184 0 318.5 93t204 255t69.5 360 q0 193 -71 350.5t-205 251t-316 93.5q-188 0 -322.5 -93.5t-203 -253t-68.5 -354.5zM608 1712l221 313h140l-248 -313h-113zM956 1712l222 313h139l-248 -313h-113z" />
<glyph unicode="&#x151;" horiz-adv-x="1329" d="M137 0zM137 559q0 168 59.5 302t179.5 212t290 78t288.5 -78t178 -212t59.5 -302t-59.5 -303t-178 -213t-288.5 -78t-290 78t-179.5 213t-59.5 303zM252 559q0 -135 48 -244.5t141.5 -174t224.5 -64.5q129 0 222 64.5t141 174t48 244.5t-48 244.5t-140 173t-223 63.5 t-224.5 -63.5t-141.5 -173t-48 -244.5zM424 1343l221 314h139l-247 -314h-113zM772 1343l221 314h140l-248 -314h-113z" />
<glyph unicode="&#x152;" horiz-adv-x="2297" d="M147 778q0 385 183.5 579.5t548.5 194.5h1286v-110h-785v-606h682v-111h-682v-614h795v-111h-1296q-362 0 -547 197.5t-185 580.5zM266 772q0 -342 156 -504t457 -162h387v1340h-387q-303 0 -458 -162t-155 -512z" />
<glyph unicode="&#x153;" horiz-adv-x="2111" d="M137 559q0 168 59.5 302t179.5 212t290 78t287.5 -77t179.5 -212q59 141 173.5 215t258.5 74q207 0 324.5 -133t119.5 -383v-43h-817v-29q0 -219 99.5 -353t314.5 -134q147 0 333 84l41 -103q-180 -92 -374 -92q-172 0 -292 77t-179 216q-61 -137 -179 -215t-290 -78 q-170 0 -290 78t-179.5 213t-59.5 303zM252 559q0 -135 48 -244.5t141.5 -174t224.5 -64.5q129 0 222 64.5t141 174t48 244.5t-48 244.5t-140 173t-223 63.5t-224.5 -63.5t-141.5 -173t-48 -244.5zM1202 702h690q-12 174 -92 256t-235 82q-146 0 -241 -85t-122 -253z" />
<glyph unicode="&#x154;" horiz-adv-x="1411" d="M246 0v1552h502q465 0 464 -426q0 -367 -358 -415l440 -711h-135l-436 705h-363v-705h-114zM246 0zM360 811h388q346 0 346 322q0 162 -87 237.5t-259 75.5h-388v-635zM579 1712l222 313h139l-248 -313h-113z" />
<glyph unicode="&#x155;" horiz-adv-x="780" d="M205 0v1118h110v-135q78 72 172.5 116t184.5 44h47v-111h-47q-96 0 -187.5 -43t-169.5 -117v-872h-110zM205 0zM414 1343l221 314h140l-248 -314h-113z" />
<glyph unicode="&#x156;" horiz-adv-x="1411" d="M246 0v1552h502q465 0 464 -426q0 -367 -358 -415l440 -711h-135l-436 705h-363v-705h-114zM246 0zM360 811h388q346 0 346 322q0 162 -87 237.5t-259 75.5h-388v-635zM545 -504l66 340h123l-78 -340h-111z" />
<glyph unicode="&#x157;" horiz-adv-x="780" d="M121 0zM121 -504l66 340h123l-78 -340h-111zM205 0v1118h110v-135q78 72 172.5 116t184.5 44h47v-111h-47q-96 0 -187.5 -43t-169.5 -117v-872h-110z" />
<glyph unicode="&#x158;" horiz-adv-x="1411" d="M246 0v1552h502q465 0 464 -426q0 -367 -358 -415l440 -711h-135l-436 705h-363v-705h-114zM246 0zM340 2025h139l166 -233l164 233h139l-248 -313h-112zM360 811h388q346 0 346 322q0 162 -87 237.5t-259 75.5h-388v-635z" />
<glyph unicode="&#x159;" horiz-adv-x="780" d="M174 0zM174 1657h140l166 -234l163 234h140l-248 -314h-113zM205 0v1118h110v-135q78 72 172.5 116t184.5 44h47v-111h-47q-96 0 -187.5 -43t-169.5 -117v-872h-110z" />
<glyph unicode="&#x15a;" horiz-adv-x="1288" d="M135 0zM135 74v114q223 -117 510 -116q195 0 285 86t92 227q0 131 -85 199.5t-232 109.5l-140 39q-115 33 -196.5 78t-134 128t-52.5 214q0 209 120 318.5t337 109.5q127 0 224.5 -23.5t201.5 -72.5v-115q-199 104 -426 105q-172 0 -255 -87.5t-83 -236.5 q2 -133 80 -199.5t227 -107.5l142 -39q121 -33 204.5 -79t135 -129t51.5 -214q-2 -195 -134.5 -306.5t-361.5 -111.5q-285 0 -510 109zM594 1712l222 313h139l-248 -313h-113z" />
<glyph unicode="&#x15b;" horiz-adv-x="999" d="M115 0zM115 49v129q182 -102 387 -102q135 0 195.5 59.5t60.5 153.5t-51.5 138t-163.5 75l-103 28q-131 37 -212 107t-81 219q0 133 89.5 214t259.5 81q98 0 171.5 -18.5t151.5 -55.5v-119q-88 41 -153.5 61.5t-169.5 20.5q-121 0 -177.5 -54t-56.5 -132q0 -92 54.5 -138 t156.5 -75l102 -29q96 -27 158 -58.5t100.5 -95t38.5 -171.5q0 -152 -101 -237t-269 -85q-113 0 -202 19.5t-185 64.5zM428 1343l221 314h140l-248 -314h-113z" />
<glyph unicode="&#x15e;" horiz-adv-x="1288" d="M135 74v114q223 -117 510 -116q195 0 285 86t92 227q0 131 -85 199.5t-232 109.5l-140 39q-115 33 -196.5 78t-134 128t-52.5 214q0 209 120 318.5t337 109.5q127 0 224.5 -23.5t201.5 -72.5v-115q-199 104 -426 105q-172 0 -255 -87.5t-83 -236.5q2 -133 80 -199.5 t227 -107.5l142 -39q121 -33 204.5 -79t135 -129t51.5 -214q-2 -182 -120 -292.5t-327 -123.5l-37 -117q10 2 31 3q106 0 164.5 -52.5t58.5 -138.5q0 -90 -65.5 -145.5t-183.5 -55.5q-98 0 -189 41v99q94 -43 189 -43q74 0 109.5 30.5t35.5 73.5q0 94 -119 94 q-70 0 -174 -35l76 244q-250 12 -455 109z" />
<glyph unicode="&#x15f;" horiz-adv-x="999" d="M115 49v129q182 -102 387 -102q135 0 195.5 59.5t60.5 153.5t-51.5 138t-163.5 75l-103 28q-131 37 -212 107t-81 219q0 133 89.5 214t259.5 81q98 0 171.5 -18.5t151.5 -55.5v-119q-88 41 -153.5 61.5t-169.5 20.5q-121 0 -177.5 -54t-56.5 -132q0 -92 54.5 -138 t156.5 -75l102 -29q96 -27 158 -58.5t100.5 -95t38.5 -171.5q0 -140 -87 -223.5t-234 -96.5l-37 -117q10 2 31 3q106 0 164.5 -52.5t58.5 -138.5q0 -90 -65.5 -145.5t-184.5 -55.5q-98 0 -188 41v99q94 -43 188 -43q74 0 110 30.5t36 73.5q0 94 -119 94q-70 0 -174 -35 l75 246q-92 2 -168.5 22.5t-162.5 59.5z" />
<glyph unicode="&#x160;" horiz-adv-x="1288" d="M135 0zM135 74v114q223 -117 510 -116q195 0 285 86t92 227q0 131 -85 199.5t-232 109.5l-140 39q-115 33 -196.5 78t-134 128t-52.5 214q0 209 120 318.5t337 109.5q127 0 224.5 -23.5t201.5 -72.5v-115q-199 104 -426 105q-172 0 -255 -87.5t-83 -236.5 q2 -133 80 -199.5t227 -107.5l142 -39q121 -33 204.5 -79t135 -129t51.5 -214q-2 -195 -134.5 -306.5t-361.5 -111.5q-285 0 -510 109zM355 2025h139l166 -233l164 233h139l-248 -313h-112z" />
<glyph unicode="&#x161;" horiz-adv-x="999" d="M115 0zM115 49v129q182 -102 387 -102q135 0 195.5 59.5t60.5 153.5t-51.5 138t-163.5 75l-103 28q-131 37 -212 107t-81 219q0 133 89.5 214t259.5 81q98 0 171.5 -18.5t151.5 -55.5v-119q-88 41 -153.5 61.5t-169.5 20.5q-121 0 -177.5 -54t-56.5 -132q0 -92 54.5 -138 t156.5 -75l102 -29q96 -27 158 -58.5t100.5 -95t38.5 -171.5q0 -152 -101 -237t-269 -85q-113 0 -202 19.5t-185 64.5zM188 1657h140l166 -234l163 234h140l-248 -314h-113z" />
<glyph unicode="&#x162;" horiz-adv-x="1257" d="M82 1442v110h1094v-110h-490v-1442h-4l-47 -150q10 2 31 3q106 0 164.5 -52.5t58.5 -138.5q0 -90 -65.5 -145.5t-184.5 -55.5q-98 0 -188 41v99q94 -43 188 -43q74 0 109.5 30.5t35.5 73.5q0 94 -118 94q-70 0 -174 -35l86 279h-7v1442h-489z" />
<glyph unicode="&#x163;" horiz-adv-x="694" d="M84 1008v110h139v389h111v-389h262v-110h-262v-775q0 -88 27.5 -118.5t103.5 -30.5q59 0 135 16v-110q-72 -16 -135 -17h-31l-39 -123q10 2 31 3q106 0 164.5 -52.5t58.5 -138.5q0 -90 -65.5 -145.5t-184.5 -55.5q-98 0 -188 41v99q94 -43 188 -43q74 0 110 30.5t36 73.5 q0 94 -119 94q-70 0 -174 -35l82 269q-63 23 -87 79t-24 164v775h-139z" />
<glyph unicode="&#x164;" horiz-adv-x="1257" d="M82 0zM82 1442v110h1094v-110h-490v-1442h-115v1442h-489zM324 2025h139l166 -233l164 233h139l-248 -313h-112z" />
<glyph unicode="&#x165;" horiz-adv-x="694" d="M84 0zM84 1008v110h139v389h111v-389h262v-110h-262v-775q0 -88 27.5 -118.5t103.5 -30.5q59 0 135 16v-110q-72 -16 -135 -17q-96 0 -148.5 25t-73 80t-20.5 155v775h-139zM495 1241l103 413h110l-114 -413h-99z" />
<glyph unicode="&#x166;" horiz-adv-x="1257" d="M82 1442v110h1094v-110h-490v-324h367v-106h-367v-1012h-115v1012h-366v106h366v324h-489z" />
<glyph unicode="&#x167;" horiz-adv-x="694" d="M84 518v98h139v392h-139v110h139v389h111v-389h262v-110h-262v-392h262v-98h-262v-285q0 -88 27.5 -118.5t103.5 -30.5q59 0 135 16v-110q-72 -16 -135 -17q-96 0 -148.5 25t-73 80t-20.5 155v285h-139z" />
<glyph unicode="&#x16a;" horiz-adv-x="1568" d="M236 0zM236 508v1044h114v-1044q0 -215 109.5 -325.5t324.5 -110.5t325 110.5t110 325.5v1044h114v-1044q0 -260 -136 -401.5t-413 -141.5q-274 0 -411 141.5t-137 401.5zM466 1821v98h633v-98h-633z" />
<glyph unicode="&#x16b;" horiz-adv-x="1253" d="M195 0zM195 442v676h110v-676q0 -133 25.5 -209.5t86 -111.5t165.5 -35q96 0 187 43t169 117v872h111v-1118h-111v135q-78 -72 -172 -116t-184 -44q-199 0 -293 106.5t-94 360.5zM299 1452v98h633v-98h-633z" />
<glyph unicode="&#x16e;" horiz-adv-x="1568" d="M236 0zM236 508v1044h114v-1044q0 -215 109.5 -325.5t324.5 -110.5t325 110.5t110 325.5v1044h114v-1044q0 -260 -136 -401.5t-413 -141.5q-274 0 -411 141.5t-137 401.5zM593 1868q0 80 54.5 133t136.5 53q80 0 134 -53t54 -133t-54 -134.5t-134 -54.5t-135.5 54.5 t-55.5 134.5zM677 1868q0 -49 31 -80t76 -31t74.5 31t29.5 80q0 51 -28.5 80.5t-75.5 29.5q-45 0 -76 -30.5t-31 -79.5z" />
<glyph unicode="&#x16f;" horiz-adv-x="1253" d="M195 0zM195 442v676h110v-676q0 -133 25.5 -209.5t86 -111.5t165.5 -35q96 0 187 43t169 117v872h111v-1118h-111v135q-78 -72 -172 -116t-184 -44q-199 0 -293 106.5t-94 360.5zM426 1499q0 80 54.5 133.5t136.5 53.5q80 0 134 -53.5t54 -133.5t-54.5 -134t-133.5 -54 q-80 0 -135.5 54t-55.5 134zM510 1499q0 -49 31 -79.5t76 -30.5t74.5 30.5t29.5 79.5q0 51 -28.5 81t-75.5 30q-45 0 -76 -31t-31 -80z" />
<glyph unicode="&#x170;" horiz-adv-x="1568" d="M236 0zM236 508v1044h114v-1044q0 -215 109.5 -325.5t324.5 -110.5t325 110.5t110 325.5v1044h114v-1044q0 -260 -136 -401.5t-413 -141.5q-274 0 -411 141.5t-137 401.5zM542 1712l221 313h140l-248 -313h-113zM890 1712l222 313h139l-248 -313h-113z" />
<glyph unicode="&#x171;" horiz-adv-x="1253" d="M195 0zM195 442v676h110v-676q0 -133 25.5 -209.5t86 -111.5t165.5 -35q96 0 187 43t169 117v872h111v-1118h-111v135q-78 -72 -172 -116t-184 -44q-199 0 -293 106.5t-94 360.5zM377 1343l221 314h139l-247 -314h-113zM725 1343l221 314h140l-248 -314h-113z" />
<glyph unicode="&#x172;" horiz-adv-x="1568" d="M236 508v1044h114v-1044q0 -215 109.5 -325.5t324.5 -110.5t325 110.5t110 325.5v1044h114v-1044q0 -225 -102.5 -362.5t-310.5 -170.5q-88 -72 -134.5 -130t-46.5 -121q0 -37 26 -60.5t79 -23.5q59 0 106 24v-98q-51 -23 -106 -23q-102 0 -155.5 46t-53.5 124 q0 68 37 127.5t112 124.5q-274 0 -411 141.5t-137 401.5z" />
<glyph unicode="&#x173;" horiz-adv-x="1253" d="M195 442v676h110v-676q0 -133 25.5 -209.5t86 -111.5t165.5 -35q96 0 187 43t169 117v872h111v-1118q-102 -82 -154.5 -144.5t-52.5 -131.5q0 -37 24.5 -60.5t75.5 -23.5q59 0 107 24v-98q-51 -23 -107 -23q-100 0 -152.5 46t-52.5 124q0 76 50.5 143.5t150.5 143.5v135 q-78 -72 -172 -116t-184 -44q-199 0 -293 106.5t-94 360.5z" />
<glyph unicode="&#x174;" horiz-adv-x="2146" d="M72 0zM72 1552h123l409 -1368l408 1368h123l409 -1368l408 1368h123l-482 -1570h-98l-422 1372l-420 -1372h-98zM768 1712l248 313h112l248 -313h-139l-164 234l-166 -234h-139z" />
<glyph unicode="&#x175;" horiz-adv-x="1662" d="M41 0zM41 1118h119l307 -956l305 956h119l307 -956l305 956h119l-375 -1136h-98l-318 956l-315 -956h-98zM524 1343l248 314h113l248 -314h-140l-163 234l-166 -234h-140z" />
<glyph unicode="&#x176;" horiz-adv-x="1439" d="M72 0zM72 1552h123l524 -854l526 854h123l-592 -954v-598h-114v598zM414 1712l248 313h112l248 -313h-139l-164 234l-166 -234h-139z" />
<glyph unicode="&#x177;" horiz-adv-x="1095" d="M41 0zM41 1118h119l389 -964l387 964h119l-523 -1300q-63 -160 -93.5 -218.5t-78 -86t-141.5 -27.5q-43 0 -84 8v111q41 -8 94 -8q45 0 74 20.5t51.5 64.5t63.5 146l71 178zM241 1343l248 314h113l248 -314h-140l-163 234l-166 -234h-140z" />
<glyph unicode="&#x178;" horiz-adv-x="1439" d="M72 0zM72 1552h123l524 -854l526 854h123l-592 -954v-598h-114v598zM463 1755v227h111v-227h-111zM862 1755v227h111v-227h-111z" />
<glyph unicode="&#x179;" horiz-adv-x="1449" d="M164 0v106l919 1336h-893v110h1029v-106l-918 -1335h985v-111h-1122zM164 0zM645 1712l222 313h139l-248 -313h-113z" />
<glyph unicode="&#x17a;" horiz-adv-x="1058" d="M137 0v106l627 906h-590v106h717v-106l-625 -906h670v-106h-799zM137 0zM440 1343l221 314h140l-248 -314h-113z" />
<glyph unicode="&#x17b;" horiz-adv-x="1449" d="M164 0v106l919 1336h-893v110h1029v-106l-918 -1335h985v-111h-1122zM164 0zM656 1755v227h110v-227h-110z" />
<glyph unicode="&#x17c;" horiz-adv-x="1058" d="M137 0v106l627 906h-590v106h717v-106l-625 -906h670v-106h-799zM137 0zM452 1386v228h111v-228h-111z" />
<glyph unicode="&#x17d;" horiz-adv-x="1449" d="M164 0v106l919 1336h-893v110h1029v-106l-918 -1335h985v-111h-1122zM164 0zM406 2025h139l166 -233l164 233h139l-248 -313h-112z" />
<glyph unicode="&#x17e;" horiz-adv-x="1058" d="M137 0v106l627 906h-590v106h717v-106l-625 -906h670v-106h-799zM137 0zM200 1657h140l166 -234l163 234h140l-248 -314h-113z" />
<glyph unicode="&#x192;" d="M246 1008v110h221l41 393q10 100 34.5 152.5t75 74t142.5 21.5q43 0 84 -8v-111q-41 8 -94 9q-52 0 -77.5 -13.5t-36.5 -43t-18 -93.5l-38 -381h223l-21 -110h-215l-153 -1487h-111l154 1487h-211z" />
<glyph unicode="&#x2c6;" horiz-adv-x="1329" d="M360 1343l248 314h113l248 -314h-140l-163 234l-166 -234h-140z" />
<glyph unicode="&#x2da;" horiz-adv-x="1329" d="M475 1499q0 80 54.5 133.5t136.5 53.5q80 0 134 -53.5t54 -133.5t-54.5 -134t-133.5 -54q-80 0 -135.5 54t-55.5 134zM559 1499q0 -49 31 -79.5t76 -30.5t74.5 30.5t29.5 79.5q0 51 -28.5 81t-75.5 30q-45 0 -76 -31t-31 -80z" />
<glyph unicode="&#x2dc;" horiz-adv-x="1329" d="M377 1397q4 100 46 147t101 47q57 0 121 -35l76 -40q35 -20 63 -21q66 0 66 96h102q-4 -100 -46 -147t-101 -47q-55 0 -119 35l-76 41q-37 20 -65 20q-66 0 -66 -96h-102z" />
<glyph unicode="&#x2000;" horiz-adv-x="1135" />
<glyph unicode="&#x2001;" horiz-adv-x="2271" />
<glyph unicode="&#x2002;" horiz-adv-x="1135" />
<glyph unicode="&#x2003;" horiz-adv-x="2271" />
<glyph unicode="&#x2004;" horiz-adv-x="757" />
<glyph unicode="&#x2005;" horiz-adv-x="567" />
<glyph unicode="&#x2006;" horiz-adv-x="378" />
<glyph unicode="&#x2007;" horiz-adv-x="378" />
<glyph unicode="&#x2008;" horiz-adv-x="283" />
<glyph unicode="&#x2009;" horiz-adv-x="454" />
<glyph unicode="&#x200a;" horiz-adv-x="126" />
<glyph unicode="&#x200d;" horiz-adv-x="0" />
<glyph unicode="&#x2010;" horiz-adv-x="929" d="M164 549v115h602v-115h-602z" />
<glyph unicode="&#x2011;" horiz-adv-x="929" d="M164 549v115h602v-115h-602z" />
<glyph unicode="&#x2012;" horiz-adv-x="929" d="M164 549v115h602v-115h-602z" />
<glyph unicode="&#x2013;" horiz-adv-x="1024" d="M0 551v111h1024v-111h-1024z" />
<glyph unicode="&#x2014;" horiz-adv-x="2048" d="M256 551v111h1536v-111h-1536z" />
<glyph unicode="&#x2018;" horiz-adv-x="581" d="M178 934zM178 1552l123 -618h122l-135 618h-110z" />
<glyph unicode="&#x2019;" horiz-adv-x="581" d="M158 934l123 618h122l-135 -618h-110zM158 934z" />
<glyph unicode="&#x201a;" horiz-adv-x="581" d="M158 0zM158 -309l123 618h122l-135 -618h-110z" />
<glyph unicode="&#x201c;" horiz-adv-x="909" d="M178 1552h111l135 -618h-123zM506 1552h110l136 -618h-123z" />
<glyph unicode="&#x201d;" horiz-adv-x="909" d="M158 934l123 618h122l-135 -618h-110zM158 934zM486 934l123 618h122l-135 -618h-110z" />
<glyph unicode="&#x201e;" horiz-adv-x="909" d="M158 -309l123 618h122l-135 -618h-110zM485 -309l123 618h123l-135 -618h-111z" />
<glyph unicode="&#x2020;" horiz-adv-x="950" d="M92 1149v111h326v389h114v-389h326v-111h-326v-1053h-114v1053h-326z" />
<glyph unicode="&#x2021;" horiz-adv-x="950" d="M92 535v110h326v504h-326v111h326v389h114v-389h326v-111h-326v-504h326v-110h-326v-902h-114v902h-326z" />
<glyph unicode="&#x2022;" horiz-adv-x="710" d="M133 780q0 92 65.5 156.5t157.5 64.5q94 0 158 -63.5t64 -157.5q0 -92 -64.5 -157.5t-157.5 -65.5q-92 0 -157.5 65.5t-65.5 157.5z" />
<glyph unicode="&#x2026;" horiz-adv-x="1744" d="M225 0v309h131v-309h-131zM807 0v309h131v-309h-131zM1389 0v309h131v-309h-131z" />
<glyph unicode="&#x202f;" horiz-adv-x="454" />
<glyph unicode="&#x2030;" horiz-adv-x="2996" d="M96 1012q0 106 52.5 194t141.5 140.5t195 52.5t194.5 -52.5t140.5 -140.5t52 -194t-52 -195.5t-140 -141.5t-195 -52q-106 0 -195 52t-141.5 141t-52.5 196zM215 1012q0 -119 76 -201t194 -82q117 0 193 82t76 201t-75 199.5t-194 80.5t-194.5 -81t-75.5 -199zM571 -68 l854 1651h119l-854 -1651h-119zM1202 354q0 106 52.5 194.5t141.5 140.5t195 52t194.5 -52t140.5 -140t52 -195q0 -106 -52 -195t-140 -141.5t-195 -52.5q-106 0 -195 52.5t-141.5 141.5t-52.5 195zM1321 354q0 -119 76 -200.5t194 -81.5q117 0 193 82t76 200q0 119 -75 200 t-194 81t-194.5 -81t-75.5 -200zM2124 354q0 106 52 194.5t141 140.5t196 52q106 0 194.5 -52t140.5 -140t52 -195q0 -106 -52 -195t-140.5 -141.5t-194.5 -52.5q-107 0 -196 52.5t-141 141.5t-52 195zM2243 354q0 -119 75.5 -200.5t194.5 -81.5q117 0 192.5 82t75.5 200 q0 119 -74.5 200t-193.5 81t-194.5 -81t-75.5 -200z" />
<glyph unicode="&#x2039;" horiz-adv-x="1003" d="M246 510v86l422 436l80 -78l-390 -401l390 -401l-80 -78z" />
<glyph unicode="&#x203a;" horiz-adv-x="1003" d="M256 74zM256 152l80 -78l422 436v86l-422 436l-80 -78l390 -401z" />
<glyph unicode="&#x2044;" horiz-adv-x="808" d="M-82 -68l854 1651h119l-854 -1651h-119z" />
<glyph unicode="&#x205f;" horiz-adv-x="567" />
<glyph unicode="&#x20ac;" d="M113 475l41 111h67q-2 33 -2 102q0 70 2 103h-108l41 110h75q59 508 416 508q141 0 266 -82l-43 -98q-47 31 -106.5 52.5t-116.5 21.5q-248 0 -295 -402h441l-41 -110h-410q-2 -33 -2 -103t2 -102h334l-41 -111h-283q45 -403 295 -403q78 0 134.5 22.5t129.5 73.5l49 -98 q-84 -59 -152.5 -82t-160.5 -23q-356 0 -416 510h-116z" />
<glyph unicode="&#x20b9;" d="M154 901v90h464v217h-464v90h821v-90h-246v-217h246v-90h-246v-92q0 -158 -95 -219.5t-302 -61.5h-2v-129q0 -119 31.5 -185.5t101 -95t188.5 -28.5h205v-90h-205q-209 0 -320.5 85t-111.5 314v322h111v-103h2q100 0 160.5 13.5t93 54.5t32.5 123v92h-464z" />
<glyph unicode="&#x2122;" horiz-adv-x="2334" d="M82 1442v110h782v-110h-334v-1000h-114v1000h-334zM1081 442v1110h99l405 -555l406 555h98v-1110h-115v918l-366 -500h-47l-365 500v-918h-115z" />
<glyph unicode="&#x25ca;" d="M109 690l411 690h86l410 -690l-410 -690h-86zM236 690l327 -557l328 557l-328 557z" />
<glyph unicode="&#x25fc;" horiz-adv-x="1116" d="M0 0v1116h1116v-1116h-1116z" />
</font>
</defs>
</svg>
